<svg xmlns="http://www.w3.org/2000/svg" width="45.902" height="45.902" viewBox="0 0 45.902 45.902" style="enable-background:new 0 0 45.902 45.902" xml:space="preserve">
  <path d="M43.162 26.681a9.42 9.42 0 0 0-5.825-2.742 9.267 9.267 0 0 0 3.089-6.912 9.306 9.306 0 0 0-9.308-9.307c-4.911 0-8.932 3.804-9.281 8.625 4.369 1.89 7.435 6.244 7.435 11.299 0 1.846-.42 3.65-1.201 5.287a12.412 12.412 0 0 1 3.066 2.26 12.51 12.51 0 0 1 3.61 8.851l-.002.067-.002.057-.082 1.557H45.81l.092-12.33a9.413 9.413 0 0 0-2.74-6.712z"/>
  <path d="M23.184 34.558a9.271 9.271 0 0 0 3.092-6.912 9.309 9.309 0 0 0-9.309-9.309 9.308 9.308 0 0 0-9.309 9.309 9.272 9.272 0 0 0 3.084 6.906c-4.84.375-8.663 4.383-8.698 9.318l-.092 1.853h29.706l.092-1.714a9.421 9.421 0 0 0-8.566-9.451zM6.004 11.374v3.458a2.598 2.598 0 0 0 5.194 0v-3.458h3.454a2.598 2.598 0 0 0 0-5.193h-3.454V2.774a2.597 2.597 0 0 0-5.194 0V6.18H2.596a2.596 2.596 0 0 0 0 5.193h3.408z"/>
</svg>