<svg width="840" height="361" viewBox="0 0 840 361" fill="none" xmlns="http://www.w3.org/2000/svg">
<g clip-path="url(#clip0_1740_691)">
<path d="M23.5049 317.041C23.5077 313.393 24.9587 309.895 27.5392 307.317C30.1196 304.738 33.6182 303.29 37.2661 303.29C40.9139 303.29 44.4126 304.738 46.993 307.317C49.5734 309.895 51.0245 313.393 51.0272 317.041" fill="#F2F2F2"/>
<path d="M37.2665 317.041C37.1678 317.041 37.0732 317.001 37.0035 316.932C36.9337 316.862 36.8945 316.767 36.8945 316.669V309.416C36.8945 309.318 36.9337 309.223 37.0035 309.153C37.0732 309.084 37.1678 309.044 37.2665 309.044C37.3651 309.044 37.4597 309.084 37.5294 309.153C37.5992 309.223 37.6384 309.318 37.6384 309.416V316.669C37.6384 316.767 37.5992 316.862 37.5294 316.932C37.4597 317.001 37.3651 317.041 37.2665 317.041V317.041Z" fill="#CCCCCC"/>
<path d="M37.2661 314.548C37.1772 314.549 37.0913 314.517 37.0239 314.459L32.5609 310.628C32.5234 310.597 32.4924 310.558 32.47 310.514C32.4475 310.47 32.4339 310.423 32.4299 310.374C32.426 310.325 32.4318 310.276 32.4469 310.229C32.4621 310.182 32.4864 310.139 32.5184 310.102C32.5504 310.064 32.5895 310.034 32.6334 310.012C32.6772 309.99 32.725 309.976 32.774 309.973C32.823 309.969 32.8722 309.976 32.9188 309.991C32.9654 310.007 33.0084 310.031 33.0454 310.064L37.5085 313.894C37.5661 313.944 37.6073 314.01 37.6263 314.083C37.6454 314.157 37.6414 314.235 37.615 314.306C37.5886 314.377 37.541 314.439 37.4786 314.482C37.4162 314.525 37.342 314.549 37.266 314.548L37.2661 314.548Z" fill="#CCCCCC"/>
<path d="M65.9043 317.041C65.9071 313.393 67.3581 309.895 69.9386 307.317C72.519 304.738 76.0176 303.29 79.6655 303.29C83.3133 303.29 86.812 304.738 89.3924 307.317C91.9728 309.895 93.4239 313.393 93.4267 317.041" fill="#F2F2F2"/>
<path d="M79.6659 317.041C79.5672 317.041 79.4726 317.001 79.4029 316.932C79.3331 316.862 79.2939 316.767 79.2939 316.669V309.416C79.2939 309.318 79.3331 309.223 79.4029 309.153C79.4726 309.084 79.5672 309.044 79.6659 309.044C79.7645 309.044 79.8591 309.084 79.9289 309.153C79.9986 309.223 80.0378 309.318 80.0378 309.416V316.669C80.0378 316.767 79.9986 316.862 79.9288 316.932C79.8591 317.001 79.7645 317.041 79.6659 317.041V317.041Z" fill="#CCCCCC"/>
<path d="M79.6657 314.548C79.5769 314.548 79.491 314.517 79.4236 314.459L74.9606 310.628C74.923 310.597 74.892 310.558 74.8695 310.514C74.847 310.47 74.8333 310.423 74.8293 310.374C74.8254 310.325 74.8312 310.275 74.8463 310.229C74.8615 310.182 74.8858 310.139 74.9179 310.101C74.9499 310.064 74.989 310.033 75.0329 310.011C75.0768 309.989 75.1246 309.976 75.1736 309.973C75.2227 309.969 75.2719 309.975 75.3185 309.991C75.3651 310.007 75.4081 310.031 75.4451 310.064L79.9081 313.894C79.9658 313.944 80.0069 314.01 80.026 314.083C80.045 314.157 80.0411 314.235 80.0147 314.306C79.9883 314.377 79.9407 314.438 79.8783 314.482C79.8159 314.525 79.7417 314.549 79.6657 314.548L79.6657 314.548Z" fill="#CCCCCC"/>
<path d="M629.158 53.9597C643.769 53.9597 655.613 42.1153 655.613 27.5045C655.613 12.8937 643.769 1.04932 629.158 1.04932C614.547 1.04932 602.702 12.8937 602.702 27.5045C602.702 42.1153 614.547 53.9597 629.158 53.9597Z" fill="#F2F2F2"/>
<path d="M87.2194 346.57C100.502 346.57 111.27 344.057 111.27 340.958C111.27 337.859 100.502 335.346 87.2194 335.346C73.9367 335.346 63.1689 337.859 63.1689 340.958C63.1689 344.057 73.9367 346.57 87.2194 346.57Z" fill="#F2F2F2"/>
<path d="M74.942 110.6C81.2496 90.9045 96.6515 75.6296 114.917 66.5446C136.589 55.7653 161.492 54.5448 185.024 58.7401C210.426 63.2689 234.167 73.7093 257.148 85.1026C279.688 96.278 301.865 108.078 325.307 117.313C372.107 135.724 421.71 145.999 471.972 147.693C517.212 149.202 565.582 144.246 604.318 118.819C639.811 95.5206 662.395 57.0854 674.158 17.021C675.664 11.8918 677.003 6.71857 678.174 1.50119C678.516 -0.00588949 676.198 -0.649356 675.855 0.861844C666.367 42.6992 646.133 84.0489 611.562 110.718C574.171 139.562 525.097 146.231 479.175 145.467C428.363 144.58 378.091 134.879 330.597 116.796C306.553 107.643 283.862 95.7562 260.883 84.2808C238.409 73.0574 215.303 62.5514 190.589 57.3751C168.022 52.6484 143.861 52.3604 122.103 60.7713C104.187 67.697 87.8516 80.0417 78.2917 96.9287C75.9607 101.067 74.0611 105.434 72.6228 109.961C72.1497 111.439 74.471 112.071 74.942 110.6V110.6Z" fill="#F2F2F2"/>
<path d="M418.305 294.758C418.518 294.758 418.722 294.673 418.872 294.523C419.023 294.373 419.107 294.169 419.107 293.956C419.107 293.744 419.023 293.54 418.872 293.389C418.722 293.239 418.518 293.155 418.305 293.155H410.689V289.948H418.305C418.518 289.948 418.722 289.863 418.872 289.713C419.023 289.563 419.107 289.359 419.107 289.146C419.107 288.934 419.023 288.73 418.872 288.579C418.722 288.429 418.518 288.344 418.305 288.344H353.369C353.156 288.344 352.953 288.429 352.802 288.579C352.652 288.73 352.567 288.934 352.567 289.146C352.567 289.359 352.652 289.563 352.802 289.713C352.953 289.863 353.156 289.948 353.369 289.948H360.985V293.155H353.369C353.156 293.155 352.953 293.239 352.802 293.389C352.652 293.54 352.567 293.744 352.567 293.956C352.567 294.169 352.652 294.373 352.802 294.523C352.953 294.673 353.156 294.758 353.369 294.758H360.985V297.965H353.369C353.156 297.965 352.953 298.049 352.802 298.199C352.652 298.35 352.567 298.554 352.567 298.766C352.567 298.979 352.652 299.183 352.802 299.333C352.953 299.483 353.156 299.568 353.369 299.568H360.985V302.775H354.171C353.746 302.775 353.338 302.944 353.037 303.244C352.736 303.545 352.567 303.953 352.567 304.378C352.567 304.803 352.736 305.211 353.037 305.512C353.338 305.812 353.746 305.981 354.171 305.981H360.658C360.611 306.11 360.586 306.245 360.584 306.382V317.606C360.584 317.924 360.711 318.23 360.936 318.456C361.162 318.681 361.468 318.808 361.787 318.808C362.106 318.808 362.412 318.681 362.637 318.456C362.863 318.23 362.989 317.924 362.989 317.606V306.382C362.988 306.245 362.963 306.11 362.916 305.981H408.759C408.711 306.11 408.687 306.245 408.685 306.382V317.606C408.685 317.924 408.812 318.23 409.037 318.456C409.263 318.681 409.569 318.808 409.888 318.808C410.207 318.808 410.513 318.681 410.738 318.456C410.964 318.23 411.09 317.924 411.09 317.606V306.382C411.089 306.245 411.064 306.11 411.017 305.981H417.504C417.929 305.981 418.337 305.812 418.637 305.512C418.938 305.211 419.107 304.803 419.107 304.378C419.107 303.953 418.938 303.545 418.637 303.244C418.337 302.944 417.929 302.775 417.504 302.775H410.689V299.568H418.305C418.518 299.568 418.722 299.483 418.872 299.333C419.023 299.183 419.107 298.979 419.107 298.766C419.107 298.554 419.023 298.35 418.872 298.199C418.722 298.049 418.518 297.965 418.305 297.965H410.689V294.758H418.305ZM362.588 289.948H409.086V293.155H362.588V289.948ZM409.086 302.775H362.588V299.568H409.086V302.775ZM409.086 297.965H362.588V294.758H409.086V297.965Z" fill="#3F3D56"/>
<path d="M173.801 261.11C173.801 246.952 162.315 213.354 148.147 213.354C133.979 213.354 122.493 246.952 122.493 261.11C122.493 267.914 125.196 274.439 130.007 279.25C134.818 284.061 141.343 286.764 148.147 286.764C154.951 286.764 161.476 284.061 166.287 279.25C171.098 274.439 173.801 267.914 173.801 261.11H173.801Z" fill="#E6E6E6"/>
<path d="M167.388 261.11C167.388 246.952 155.902 213.354 141.734 213.354C127.566 213.354 116.08 246.952 116.08 261.11C116.08 267.914 118.783 274.439 123.594 279.25C128.405 284.061 134.93 286.764 141.734 286.764C148.538 286.764 155.063 284.061 159.874 279.25C164.685 274.439 167.388 267.914 167.388 261.11H167.388Z" fill="#F2F2F2"/>
<path d="M142.535 318.47C142.322 318.47 142.119 318.386 141.968 318.236C141.818 318.085 141.733 317.881 141.733 317.669V246.207C141.733 245.995 141.818 245.791 141.968 245.64C142.119 245.49 142.322 245.406 142.535 245.406C142.748 245.406 142.952 245.49 143.102 245.64C143.252 245.791 143.337 245.995 143.337 246.207V317.669C143.337 317.881 143.252 318.085 143.102 318.236C142.952 318.386 142.748 318.47 142.535 318.47Z" fill="#CCCCCC"/>
<path d="M142.536 257.922C142.377 257.922 142.222 257.875 142.091 257.787C141.959 257.699 141.856 257.574 141.795 257.427C141.735 257.281 141.719 257.12 141.75 256.964C141.781 256.809 141.857 256.666 141.969 256.554L152.453 246.07C152.604 245.919 152.807 245.835 153.02 245.835C153.233 245.835 153.437 245.919 153.587 246.07C153.737 246.22 153.822 246.424 153.822 246.636C153.822 246.849 153.737 247.053 153.587 247.203L143.103 257.688C143.028 257.762 142.94 257.821 142.843 257.861C142.745 257.902 142.641 257.922 142.536 257.922V257.922Z" fill="#CCCCCC"/>
<path d="M437.555 318.47C437.342 318.47 437.138 318.386 436.988 318.236C436.837 318.085 436.753 317.881 436.753 317.669V246.207C436.753 245.995 436.837 245.791 436.988 245.64C437.138 245.49 437.342 245.406 437.555 245.406C437.767 245.406 437.971 245.49 438.122 245.64C438.272 245.791 438.356 245.995 438.356 246.207V317.669C438.356 317.881 438.272 318.085 438.122 318.236C437.971 318.386 437.767 318.47 437.555 318.47Z" fill="#3F3D56"/>
<path d="M523.335 261.11C523.335 246.952 511.849 213.354 497.681 213.354C483.513 213.354 472.027 246.952 472.027 261.11C472.027 267.914 474.73 274.439 479.541 279.25C484.352 284.061 490.877 286.764 497.681 286.764C504.485 286.764 511.01 284.061 515.821 279.25C520.632 274.439 523.335 267.914 523.335 261.11H523.335Z" fill="#E6E6E6"/>
<path d="M516.922 261.11C516.922 246.952 505.436 213.354 491.268 213.354C477.1 213.354 465.614 246.952 465.614 261.11C465.614 267.914 468.317 274.439 473.128 279.25C477.939 284.061 484.464 286.764 491.268 286.764C498.072 286.764 504.597 284.061 509.408 279.25C514.219 274.439 516.922 267.914 516.922 261.11H516.922Z" fill="#F2F2F2"/>
<path d="M492.069 318.47C491.857 318.47 491.653 318.386 491.502 318.236C491.352 318.085 491.268 317.881 491.268 317.669V246.207C491.268 245.995 491.352 245.791 491.502 245.64C491.653 245.49 491.857 245.406 492.069 245.406C492.282 245.406 492.486 245.49 492.636 245.64C492.786 245.791 492.871 245.995 492.871 246.207V317.669C492.871 317.881 492.786 318.085 492.636 318.236C492.486 318.386 492.282 318.47 492.069 318.47Z" fill="#CCCCCC"/>
<path d="M492.069 257.922C491.911 257.922 491.756 257.875 491.624 257.787C491.492 257.699 491.389 257.574 491.329 257.427C491.268 257.281 491.252 257.12 491.283 256.964C491.314 256.809 491.39 256.666 491.502 256.554L501.986 246.07C502.137 245.919 502.341 245.835 502.553 245.835C502.766 245.835 502.97 245.919 503.12 246.07C503.27 246.22 503.355 246.424 503.355 246.636C503.355 246.849 503.27 247.053 503.12 247.203L492.636 257.688C492.562 257.762 492.473 257.821 492.376 257.861C492.279 257.902 492.174 257.922 492.069 257.922Z" fill="#CCCCCC"/>
<path d="M227.514 41.5336H214.687C213.73 41.5326 212.813 41.1522 212.137 40.4758C211.461 39.7995 211.08 38.8826 211.079 37.9261V8.26426C211.08 7.30781 211.461 6.39085 212.137 5.71454C212.813 5.03822 213.73 4.6578 214.687 4.65674H227.514C228.47 4.6578 229.387 5.03822 230.063 5.71454C230.74 6.39085 231.12 7.30781 231.121 8.26426V37.9261C231.12 38.8826 230.74 39.7995 230.063 40.4758C229.387 41.1522 228.47 41.5326 227.514 41.5336V41.5336Z" fill="#E6E6E6"/>
<path d="M278.02 318.111H212.282C210.475 318.108 208.743 317.39 207.466 316.112C206.188 314.835 205.47 313.103 205.468 311.296V45.9429C205.47 44.1363 206.188 42.4042 207.466 41.1268C208.743 39.8493 210.475 39.1307 212.282 39.1287H278.02C279.827 39.1307 281.559 39.8492 282.836 41.1267C284.114 42.4042 284.832 44.1363 284.834 45.9429V311.296C284.832 313.103 284.114 314.835 282.836 316.112C281.559 317.39 279.827 318.108 278.02 318.111V318.111Z" fill="#E6E6E6"/>
<path d="M238.738 318.111H173C171.193 318.108 169.461 317.39 168.184 316.112C166.906 314.835 166.188 313.103 166.186 311.296V45.9429C166.188 44.1363 166.906 42.4042 168.184 41.1268C169.461 39.8493 171.193 39.1307 173 39.1287H238.738C240.545 39.1307 242.277 39.8493 243.554 41.1268C244.832 42.4042 245.55 44.1363 245.552 45.9429V311.296C245.55 313.103 244.832 314.835 243.554 316.112C242.277 317.39 240.545 318.108 238.738 318.111V318.111Z" fill="#F2F2F2"/>
<path d="M215.489 41.5336H202.662C201.706 41.5326 200.789 41.1522 200.112 40.4758C199.436 39.7995 199.056 38.8826 199.055 37.9261V8.26426C199.056 7.30781 199.436 6.39085 200.112 5.71454C200.789 5.03822 201.706 4.6578 202.662 4.65674H215.489C216.446 4.6578 217.363 5.03822 218.039 5.71454C218.715 6.39085 219.096 7.30781 219.097 8.26426V37.9261C219.096 38.8826 218.715 39.7995 218.039 40.4758C217.363 41.1522 216.446 41.5326 215.489 41.5336V41.5336Z" fill="#F2F2F2"/>
<path d="M198.653 99.2542H183.421C182.89 99.2536 182.38 99.0422 182.005 98.6665C181.629 98.2908 181.418 97.7813 181.417 97.25V74.0015C181.418 73.4701 181.629 72.9607 182.005 72.585C182.38 72.2093 182.89 71.9979 183.421 71.9973H198.653C199.185 71.9979 199.694 72.2093 200.07 72.585C200.445 72.9607 200.657 73.4701 200.657 74.0015V97.25C200.657 97.7813 200.445 98.2908 200.07 98.6665C199.694 99.0422 199.185 99.2536 198.653 99.2542V99.2542Z" fill="white"/>
<path d="M228.315 99.2542H213.083C212.552 99.2536 212.043 99.0422 211.667 98.6665C211.291 98.2908 211.08 97.7813 211.079 97.25V74.0015C211.08 73.4701 211.291 72.9607 211.667 72.585C212.043 72.2093 212.552 71.9979 213.083 71.9973H228.315C228.847 71.9979 229.356 72.2093 229.732 72.585C230.108 72.9607 230.319 73.4701 230.32 74.0015V97.25C230.319 97.7813 230.108 98.2908 229.732 98.6665C229.356 99.0422 228.847 99.2536 228.315 99.2542V99.2542Z" fill="white"/>
<path d="M198.653 141.743H183.421C182.89 141.742 182.38 141.531 182.005 141.155C181.629 140.779 181.418 140.27 181.417 139.738V116.49C181.418 115.959 181.629 115.449 182.005 115.074C182.38 114.698 182.89 114.486 183.421 114.486H198.653C199.185 114.486 199.694 114.698 200.07 115.074C200.445 115.449 200.657 115.959 200.657 116.49V139.738C200.657 140.27 200.445 140.779 200.07 141.155C199.694 141.531 199.185 141.742 198.653 141.743V141.743Z" fill="white"/>
<path d="M228.315 141.743H213.083C212.552 141.742 212.043 141.531 211.667 141.155C211.291 140.779 211.08 140.27 211.079 139.738V116.49C211.08 115.959 211.291 115.449 211.667 115.074C212.043 114.698 212.552 114.486 213.083 114.486H228.315C228.847 114.486 229.356 114.698 229.732 115.074C230.108 115.449 230.319 115.959 230.32 116.49V139.738C230.319 140.27 230.108 140.779 229.732 141.155C229.356 141.531 228.847 141.742 228.315 141.743V141.743Z" fill="white"/>
<path d="M198.653 184.231H183.421C182.89 184.231 182.38 184.02 182.005 183.644C181.629 183.268 181.418 182.759 181.417 182.227V158.979C181.418 158.447 181.629 157.938 182.005 157.562C182.38 157.187 182.89 156.975 183.421 156.975H198.653C199.185 156.975 199.694 157.187 200.07 157.562C200.445 157.938 200.657 158.447 200.657 158.979V182.227C200.657 182.759 200.445 183.268 200.07 183.644C199.694 184.02 199.185 184.231 198.653 184.231V184.231Z" fill="white"/>
<path d="M228.315 184.231H213.083C212.552 184.231 212.043 184.02 211.667 183.644C211.291 183.268 211.08 182.759 211.079 182.227V158.979C211.08 158.447 211.291 157.938 211.667 157.562C212.043 157.187 212.552 156.975 213.083 156.975H228.315C228.847 156.975 229.356 157.187 229.732 157.562C230.108 157.938 230.319 158.447 230.32 158.979V182.227C230.319 182.759 230.108 183.268 229.732 183.644C229.356 184.02 228.847 184.231 228.315 184.231V184.231Z" fill="white"/>
<path d="M198.653 226.72H183.421C182.89 226.719 182.38 226.508 182.005 226.132C181.629 225.757 181.418 225.247 181.417 224.716V201.467C181.418 200.936 181.629 200.427 182.005 200.051C182.38 199.675 182.89 199.464 183.421 199.463H198.653C199.185 199.464 199.694 199.675 200.07 200.051C200.445 200.427 200.657 200.936 200.657 201.467V224.716C200.657 225.247 200.445 225.757 200.07 226.132C199.694 226.508 199.185 226.719 198.653 226.72V226.72Z" fill="white"/>
<path d="M228.315 226.72H213.083C212.552 226.719 212.043 226.508 211.667 226.132C211.291 225.757 211.08 225.247 211.079 224.716V201.467C211.08 200.936 211.291 200.427 211.667 200.051C212.043 199.675 212.552 199.464 213.083 199.463H228.315C228.847 199.464 229.356 199.675 229.732 200.051C230.108 200.427 230.319 200.936 230.32 201.467V224.716C230.319 225.247 230.108 225.757 229.732 226.132C229.356 226.508 228.847 226.719 228.315 226.72V226.72Z" fill="white"/>
<path d="M198.653 269.208H183.421C182.89 269.208 182.38 268.997 182.005 268.621C181.629 268.245 181.418 267.736 181.417 267.204V243.956C181.418 243.424 181.629 242.915 182.005 242.539C182.38 242.164 182.89 241.952 183.421 241.952H198.653C199.185 241.952 199.694 242.164 200.07 242.539C200.445 242.915 200.657 243.424 200.657 243.956V267.204C200.657 267.736 200.445 268.245 200.07 268.621C199.694 268.997 199.185 269.208 198.653 269.208V269.208Z" fill="white"/>
<path d="M228.315 269.208H213.083C212.552 269.208 212.043 268.997 211.667 268.621C211.291 268.245 211.08 267.736 211.079 267.204V243.956C211.08 243.424 211.291 242.915 211.667 242.539C212.043 242.164 212.552 241.952 213.083 241.952H228.315C228.847 241.952 229.356 242.164 229.732 242.539C230.108 242.915 230.319 243.424 230.32 243.956V267.204C230.319 267.736 230.108 268.245 229.732 268.621C229.356 268.997 228.847 269.208 228.315 269.208V269.208Z" fill="white"/>
<path d="M558.609 181.826H545.782C544.826 181.825 543.909 181.445 543.233 180.768C542.556 180.092 542.176 179.175 542.175 178.219V161.384C542.176 160.427 542.556 159.51 543.233 158.834C543.909 158.158 544.826 157.777 545.782 157.776H558.609C559.566 157.777 560.483 158.158 561.159 158.834C561.835 159.51 562.216 160.427 562.217 161.384V178.219C562.216 179.175 561.835 180.092 561.159 180.768C560.483 181.445 559.566 181.825 558.609 181.826Z" fill="#E6E6E6"/>
<path d="M666.837 318.912H601.098C599.292 318.91 597.56 318.192 596.282 316.914C595.005 315.637 594.286 313.905 594.284 312.098V184.632C594.286 182.825 595.005 181.093 596.282 179.816C597.56 178.538 599.292 177.82 601.098 177.818H666.837C668.643 177.82 670.375 178.538 671.653 179.816C672.93 181.093 673.649 182.825 673.651 184.632V312.098C673.649 313.905 672.93 315.637 671.653 316.914C670.375 318.192 668.643 318.91 666.837 318.912V318.912Z" fill="#E6E6E6"/>
<path d="M627.554 318.912H513.715C511.908 318.91 510.176 318.192 508.898 316.914C507.621 315.637 506.902 313.905 506.9 312.098V184.632C506.902 182.825 507.621 181.093 508.898 179.816C510.176 178.538 511.908 177.82 513.715 177.818H627.554C629.36 177.82 631.092 178.538 632.37 179.816C633.647 181.093 634.366 182.825 634.368 184.632V312.098C634.366 313.905 633.647 315.637 632.37 316.914C631.092 318.192 629.36 318.91 627.554 318.912V318.912Z" fill="#F2F2F2"/>
<path d="M546.584 181.826H533.757C532.801 181.825 531.884 181.445 531.207 180.768C530.531 180.092 530.15 179.175 530.149 178.219V161.384C530.15 160.427 530.531 159.51 531.207 158.834C531.884 158.158 532.801 157.777 533.757 157.776H546.584C547.54 157.777 548.457 158.158 549.134 158.834C549.81 159.51 550.19 160.427 550.191 161.384V178.219C550.19 179.175 549.81 180.092 549.134 180.768C548.457 181.445 547.54 181.825 546.584 181.826V181.826Z" fill="#F2F2F2"/>
<path d="M563.42 240.749H548.188C547.656 240.749 547.147 240.537 546.771 240.162C546.396 239.786 546.184 239.276 546.184 238.745V215.497C546.184 214.965 546.396 214.456 546.771 214.08C547.147 213.704 547.656 213.493 548.188 213.492H563.42C563.951 213.493 564.461 213.704 564.836 214.08C565.212 214.456 565.423 214.965 565.424 215.497V238.745C565.423 239.276 565.212 239.786 564.836 240.162C564.461 240.537 563.951 240.749 563.42 240.749V240.749Z" fill="white"/>
<path d="M593.082 240.749H577.85C577.319 240.749 576.809 240.537 576.433 240.162C576.058 239.786 575.846 239.276 575.846 238.745V215.497C575.846 214.965 576.058 214.456 576.433 214.08C576.809 213.704 577.319 213.493 577.85 213.492H593.082C593.613 213.493 594.123 213.704 594.498 214.08C594.874 214.456 595.085 214.965 595.086 215.497V238.745C595.085 239.276 594.874 239.786 594.498 240.162C594.123 240.537 593.613 240.749 593.082 240.749V240.749Z" fill="white"/>
<path d="M563.42 283.238H548.188C547.656 283.237 547.147 283.026 546.771 282.65C546.396 282.274 546.184 281.765 546.184 281.234V257.985C546.184 257.454 546.396 256.944 546.771 256.569C547.147 256.193 547.656 255.982 548.188 255.981H563.42C563.951 255.982 564.461 256.193 564.836 256.569C565.212 256.944 565.423 257.454 565.424 257.985V281.234C565.423 281.765 565.212 282.274 564.836 282.65C564.461 283.026 563.951 283.237 563.42 283.238V283.238Z" fill="white"/>
<path d="M593.082 283.238H577.85C577.319 283.237 576.809 283.026 576.433 282.65C576.058 282.274 575.846 281.765 575.846 281.234V257.985C575.846 257.454 576.058 256.944 576.433 256.569C576.809 256.193 577.319 255.982 577.85 255.981H593.082C593.613 255.982 594.123 256.193 594.498 256.569C594.874 256.944 595.085 257.454 595.086 257.985V281.234C595.085 281.765 594.874 282.274 594.498 282.65C594.123 283.026 593.613 283.237 593.082 283.238Z" fill="white"/>
<path d="M839.198 319.313H0.801683C0.589064 319.313 0.385152 319.229 0.234807 319.078C0.0844622 318.928 0 318.724 0 318.511C0 318.299 0.0844622 318.095 0.234807 317.945C0.385152 317.794 0.589064 317.71 0.801683 317.71H839.198C839.411 317.71 839.615 317.794 839.765 317.945C839.915 318.095 840 318.299 840 318.511C840 318.724 839.915 318.928 839.765 319.078C839.615 319.229 839.411 319.313 839.198 319.313Z" fill="#E6E6E6"/>
<path d="M290.847 347.372H216.29C216.077 347.372 215.873 347.287 215.723 347.137C215.573 346.986 215.488 346.783 215.488 346.57C215.488 346.357 215.573 346.153 215.723 346.003C215.873 345.853 216.077 345.768 216.29 345.768H290.847C291.059 345.768 291.263 345.853 291.413 346.003C291.564 346.153 291.648 346.357 291.648 346.57C291.648 346.783 291.564 346.986 291.413 347.137C291.263 347.287 291.059 347.372 290.847 347.372Z" fill="#E6E6E6"/>
<path d="M476.036 347.372H401.479C401.267 347.372 401.063 347.287 400.913 347.137C400.762 346.986 400.678 346.783 400.678 346.57C400.678 346.357 400.762 346.153 400.913 346.003C401.063 345.853 401.267 345.768 401.479 345.768H476.036C476.249 345.768 476.453 345.853 476.603 346.003C476.753 346.153 476.838 346.357 476.838 346.57C476.838 346.783 476.753 346.986 476.603 347.137C476.453 347.287 476.249 347.372 476.036 347.372Z" fill="#E6E6E6"/>
<path d="M661.224 347.372H586.668C586.455 347.372 586.251 347.287 586.101 347.137C585.951 346.986 585.866 346.783 585.866 346.57C585.866 346.357 585.951 346.153 586.101 346.003C586.251 345.853 586.455 345.768 586.668 345.768H661.224C661.437 345.768 661.641 345.853 661.791 346.003C661.942 346.153 662.026 346.357 662.026 346.57C662.026 346.783 661.942 346.986 661.791 347.137C661.641 347.287 661.437 347.372 661.224 347.372Z" fill="#E6E6E6"/>
<path d="M333.336 261.11C333.336 246.952 321.85 213.354 307.682 213.354C293.514 213.354 282.028 246.952 282.028 261.11C282.028 267.914 284.731 274.439 289.542 279.25C294.353 284.061 300.878 286.764 307.682 286.764C314.486 286.764 321.011 284.061 325.822 279.25C330.633 274.439 333.336 267.914 333.336 261.11H333.336Z" fill="#E6E6E6"/>
<path d="M326.923 261.11C326.923 246.952 315.437 213.354 301.269 213.354C287.101 213.354 275.615 246.952 275.615 261.11C275.615 267.914 278.318 274.439 283.129 279.25C287.94 284.061 294.465 286.764 301.269 286.764C308.073 286.764 314.598 284.061 319.409 279.25C324.22 274.439 326.923 267.914 326.923 261.11H326.923Z" fill="#F2F2F2"/>
<path d="M302.07 318.47C301.858 318.47 301.654 318.386 301.503 318.236C301.353 318.085 301.269 317.881 301.269 317.669V246.207C301.269 245.995 301.353 245.791 301.503 245.64C301.654 245.49 301.858 245.406 302.07 245.406C302.283 245.406 302.487 245.49 302.637 245.64C302.787 245.791 302.872 245.995 302.872 246.207V317.669C302.872 317.881 302.787 318.085 302.637 318.236C302.487 318.386 302.283 318.47 302.07 318.47Z" fill="#CCCCCC"/>
<path d="M302.07 257.922C301.912 257.922 301.757 257.875 301.625 257.787C301.493 257.699 301.39 257.574 301.33 257.427C301.269 257.281 301.253 257.12 301.284 256.964C301.315 256.809 301.391 256.666 301.503 256.554L311.987 246.07C312.138 245.919 312.342 245.835 312.554 245.835C312.767 245.835 312.971 245.919 313.121 246.07C313.271 246.22 313.356 246.424 313.356 246.636C313.356 246.849 313.271 247.053 313.121 247.203L302.637 257.688C302.563 257.762 302.474 257.821 302.377 257.861C302.28 257.902 302.175 257.922 302.07 257.922Z" fill="#CCCCCC"/>
<path d="M742.996 261.11C742.996 246.952 731.511 213.354 717.342 213.354C703.174 213.354 691.688 246.952 691.688 261.11C691.688 267.914 694.391 274.439 699.202 279.25C704.013 284.061 710.539 286.764 717.342 286.764C724.146 286.764 730.671 284.061 735.482 279.25C740.294 274.439 742.996 267.914 742.996 261.11H742.996Z" fill="#E6E6E6"/>
<path d="M736.583 261.11C736.583 246.952 725.098 213.354 710.929 213.354C696.761 213.354 685.275 246.952 685.275 261.11C685.275 267.914 687.978 274.439 692.789 279.25C697.6 284.061 704.125 286.764 710.929 286.764C717.733 286.764 724.258 284.061 729.069 279.25C733.88 274.439 736.583 267.914 736.583 261.11H736.583Z" fill="#F2F2F2"/>
<path d="M711.73 318.47C711.518 318.47 711.314 318.386 711.164 318.236C711.013 318.085 710.929 317.881 710.929 317.669V246.207C710.929 245.995 711.013 245.791 711.164 245.64C711.314 245.49 711.518 245.406 711.73 245.406C711.943 245.406 712.147 245.49 712.297 245.64C712.448 245.791 712.532 245.995 712.532 246.207V317.669C712.532 317.881 712.448 318.085 712.297 318.236C712.147 318.386 711.943 318.47 711.73 318.47Z" fill="#CCCCCC"/>
<path d="M711.73 257.922C711.572 257.922 711.417 257.875 711.285 257.787C711.153 257.699 711.05 257.574 710.99 257.427C710.929 257.281 710.913 257.12 710.944 256.964C710.975 256.809 711.051 256.666 711.163 256.554L721.648 246.07C721.798 245.919 722.002 245.835 722.214 245.835C722.427 245.835 722.631 245.919 722.781 246.07C722.932 246.22 723.016 246.424 723.016 246.636C723.016 246.849 722.932 247.053 722.781 247.203L712.297 257.688C712.223 257.762 712.134 257.821 712.037 257.861C711.94 257.902 711.836 257.922 711.73 257.922V257.922Z" fill="#CCCCCC"/>
<path d="M446.374 270.01H428.737C428.205 270.01 427.696 269.798 427.32 269.423C426.944 269.047 426.733 268.537 426.732 268.006V250.369C426.733 249.838 426.944 249.328 427.32 248.953C427.696 248.577 428.205 248.365 428.737 248.365H446.374C446.905 248.365 447.415 248.577 447.79 248.953C448.166 249.328 448.377 249.838 448.378 250.369V268.006C448.377 268.537 448.166 269.047 447.79 269.423C447.415 269.798 446.905 270.01 446.374 270.01Z" fill="#3F3D56"/>
<path d="M617.586 278.599C617.779 278.65 617.958 278.742 618.111 278.869C618.264 278.996 618.388 279.156 618.473 279.336C618.558 279.516 618.602 279.713 618.603 279.912C618.603 280.111 618.56 280.308 618.477 280.489L621.962 283.851L619.507 284.401L616.573 281.125C616.279 280.964 616.054 280.701 615.94 280.385C615.827 280.07 615.833 279.723 615.958 279.412C616.083 279.101 616.317 278.846 616.617 278.696C616.918 278.546 617.262 278.512 617.586 278.599H617.586Z" fill="#FFB8B8"/>
<path d="M622.487 287.442L618.187 283.408C618.127 283.352 618.08 283.285 618.047 283.211C618.014 283.136 617.996 283.056 617.994 282.975C617.993 282.893 618.007 282.812 618.038 282.737C618.068 282.661 618.113 282.593 618.17 282.535L619.048 281.645C619.152 281.54 619.292 281.476 619.44 281.466C619.588 281.456 619.734 281.499 619.852 281.589L623.456 284.343L625.704 278.891C625.793 278.676 625.925 278.481 626.092 278.319C626.259 278.157 626.457 278.031 626.675 277.948C626.892 277.866 627.125 277.829 627.357 277.84C627.589 277.851 627.817 277.909 628.026 278.012V278.012C628.356 278.171 628.624 278.433 628.792 278.758C628.96 279.083 629.018 279.454 628.957 279.815C628.549 282.295 626.078 285.574 624.641 287.307C624.444 287.544 624.18 287.713 623.883 287.793C623.587 287.872 623.273 287.858 622.984 287.752C622.8 287.683 622.63 287.577 622.487 287.442V287.442Z" fill="#125F3F"/>
<path d="M620.074 283.528L616.908 278.937C616.867 278.877 616.852 278.804 616.865 278.734C616.878 278.663 616.918 278.6 616.977 278.56L617.105 278.472C617.134 278.452 617.167 278.438 617.202 278.43C617.237 278.423 617.272 278.422 617.307 278.429C617.342 278.435 617.376 278.448 617.406 278.468C617.436 278.487 617.461 278.512 617.482 278.541L620.647 283.133C620.668 283.162 620.682 283.195 620.689 283.23C620.697 283.265 620.697 283.301 620.691 283.336C620.684 283.371 620.671 283.404 620.652 283.434C620.632 283.464 620.607 283.49 620.578 283.51L620.451 283.598C620.392 283.639 620.319 283.654 620.248 283.641C620.177 283.628 620.115 283.588 620.074 283.528V283.528Z" fill="white"/>
<path d="M619.19 283.562L616.562 279.752C616.45 279.589 616.407 279.388 616.443 279.194C616.479 278.999 616.59 278.827 616.753 278.715L617.02 278.53L620.494 283.568L620.226 283.753C620.063 283.865 619.863 283.908 619.668 283.872C619.474 283.836 619.302 283.725 619.19 283.562V283.562Z" fill="#3F3D56"/>
<path d="M619.507 316.455L617.856 316.265L618.075 309.84L620.242 310.09L619.507 316.455Z" fill="#FFB8B8"/>
<path d="M619.744 318.104L614.422 317.49L614.43 317.422C614.461 317.15 614.546 316.887 614.679 316.648C614.812 316.409 614.991 316.198 615.205 316.028C615.42 315.858 615.666 315.731 615.929 315.656C616.192 315.581 616.468 315.559 616.74 315.59H616.74L619.99 315.965L619.744 318.104Z" fill="#2F2E41"/>
<path d="M638.698 315.235L637.111 315.726L634.465 309.837L636.807 309.113L638.698 315.235Z" fill="#FFB8B8"/>
<path d="M639.579 316.649L634.461 318.23L634.441 318.165C634.36 317.904 634.331 317.629 634.357 317.356C634.382 317.083 634.461 316.818 634.589 316.576C634.717 316.334 634.891 316.12 635.102 315.945C635.313 315.77 635.556 315.638 635.817 315.558H635.817L638.943 314.592L639.579 316.649Z" fill="#2F2E41"/>
<path d="M617.665 314.974C617.497 314.922 617.356 314.807 617.272 314.653C617.187 314.5 617.166 314.319 617.213 314.15L618.207 302.698C618.253 302.175 618.418 301.67 618.688 301.221L624.71 291.227L630.099 292.195L630.134 292.21C632.753 293.814 635.078 301.591 637.327 309.113C637.677 310.283 638.038 311.493 638.391 312.649C638.457 312.814 638.455 312.998 638.387 313.162C638.319 313.326 638.189 313.457 638.026 313.526L636.394 314.213C636.239 314.279 636.066 314.284 635.907 314.229C635.749 314.173 635.616 314.061 635.536 313.913L627.148 298.556C627.137 298.537 627.122 298.521 627.104 298.508C627.086 298.496 627.065 298.489 627.044 298.486C627.022 298.484 627 298.486 626.98 298.494C626.959 298.502 626.941 298.515 626.927 298.531L622.059 304.04L620.27 314.538L620.263 314.561C620.198 314.711 620.082 314.833 619.934 314.904C619.787 314.975 619.619 314.99 619.462 314.947L617.707 314.98L617.696 314.98L617.665 314.974Z" fill="#2F2E41"/>
<path d="M624.418 292.322L624.384 292.311L624.374 292.277C624.349 292.194 621.885 283.858 624.105 278.545L624.107 278.54C624.172 278.413 625.721 275.438 627.52 275.141L627.568 275.133L628.152 276.226C628.336 276.41 631.501 279.697 630.065 285.346C630.194 285.809 631.942 292.168 630.991 293.119C630.645 293.358 630.223 293.463 629.805 293.416C627.973 293.259 626.166 292.892 624.418 292.322V292.322Z" fill="#125F3F"/>
<path d="M627.149 274.099C629.469 274.099 631.35 272.218 631.35 269.898C631.35 267.578 629.469 265.697 627.149 265.697C624.829 265.697 622.948 267.578 622.948 269.898C622.948 272.218 624.829 274.099 627.149 274.099Z" fill="#2F2E41"/>
<path d="M625.481 274.079C627.319 274.079 628.809 272.589 628.809 270.75C628.809 268.912 627.319 267.422 625.481 267.422C623.643 267.422 622.152 268.912 622.152 270.75C622.152 272.589 623.643 274.079 625.481 274.079Z" fill="#FFB8B8"/>
<path d="M627.622 273.984C627.319 274.091 626.946 274.186 626.708 273.963C626.608 273.834 626.55 273.678 626.54 273.516C626.531 273.354 626.571 273.192 626.654 273.052C626.827 272.778 626.966 272.485 627.07 272.178C627.101 271.947 627.072 271.712 626.986 271.496C626.899 271.28 626.758 271.09 626.576 270.945C626.215 270.669 625.806 270.464 625.37 270.338L623.04 269.51C622.435 269.367 621.897 269.019 621.519 268.525C621.325 268.113 621.292 267.643 621.426 267.208C621.56 266.772 621.853 266.403 622.245 266.173C622.641 265.973 623.077 265.865 623.52 265.856C623.963 265.847 624.402 265.938 624.805 266.122C625.25 266.329 625.705 266.512 626.17 266.668C627.103 266.914 628.164 266.693 628.983 267.219C629.329 267.482 629.604 267.827 629.782 268.223C629.961 268.619 630.037 269.053 630.004 269.486C629.934 270.357 629.701 271.207 629.319 271.992C629.141 272.476 628.884 272.927 628.559 273.327C628.399 273.522 628.195 273.676 627.964 273.776C627.732 273.876 627.48 273.919 627.228 273.9L627.622 273.984Z" fill="#2F2E41"/>
<path d="M630.673 270.576C632.17 270.576 633.383 269.362 633.383 267.865C633.383 266.368 632.17 265.155 630.673 265.155C629.176 265.155 627.963 266.368 627.963 267.865C627.963 269.362 629.176 270.576 630.673 270.576Z" fill="#2F2E41"/>
<path d="M626.201 271.795C626.201 271.746 626.214 271.698 626.24 271.655C626.265 271.613 626.301 271.579 626.345 271.556C626.388 271.532 626.437 271.522 626.486 271.524C626.535 271.527 626.583 271.542 626.624 271.57C626.664 271.597 626.697 271.635 626.718 271.68C626.739 271.725 626.747 271.774 626.742 271.823C626.737 271.872 626.718 271.918 626.689 271.958C626.659 271.997 626.619 272.028 626.574 272.046V272.642C626.574 272.655 626.571 272.669 626.566 272.681C626.561 272.694 626.554 272.705 626.544 272.714C626.535 272.724 626.524 272.732 626.511 272.737C626.499 272.742 626.486 272.745 626.472 272.745C626.459 272.745 626.445 272.742 626.433 272.737C626.421 272.732 626.409 272.724 626.4 272.714C626.391 272.705 626.383 272.694 626.378 272.681C626.373 272.669 626.37 272.655 626.371 272.642V272.046C626.321 272.026 626.278 271.991 626.248 271.946C626.217 271.902 626.201 271.849 626.201 271.795V271.795Z" fill="white"/>
<path d="M617.75 281.444C617.948 281.424 618.148 281.448 618.336 281.514C618.524 281.58 618.696 281.686 618.838 281.826C618.98 281.965 619.091 282.134 619.161 282.32C619.231 282.507 619.259 282.706 619.244 282.905L623.683 284.841L621.573 286.212L617.681 284.164C617.349 284.116 617.046 283.948 616.83 283.692C616.614 283.435 616.499 283.109 616.507 282.773C616.516 282.438 616.647 282.117 616.876 281.872C617.105 281.627 617.416 281.475 617.75 281.444Z" fill="#FFB8B8"/>
<path d="M625.428 288.023L619.991 285.741C619.916 285.71 619.848 285.663 619.791 285.605C619.734 285.547 619.689 285.478 619.66 285.402C619.63 285.327 619.615 285.246 619.617 285.164C619.619 285.083 619.638 285.003 619.671 284.929L620.184 283.789C620.245 283.654 620.353 283.545 620.488 283.484C620.623 283.423 620.776 283.413 620.918 283.456L625.256 284.781L625.463 278.887C625.471 278.655 625.527 278.426 625.626 278.216C625.726 278.006 625.868 277.819 626.044 277.665C626.219 277.512 626.424 277.397 626.645 277.326C626.867 277.255 627.101 277.231 627.333 277.254V277.254C627.697 277.288 628.04 277.44 628.311 277.686C628.581 277.933 628.765 278.26 628.834 278.619C629.316 281.086 628.142 285.021 627.399 287.147C627.298 287.436 627.109 287.688 626.859 287.866C626.608 288.044 626.309 288.14 626.002 288.14C625.805 288.14 625.609 288.1 625.428 288.023Z" fill="#125F3F"/>
<path d="M67.9767 286.629H59.6504V284.101C62.2815 282.27 64.6126 282.43 67.6793 284.25L67.9767 286.629Z" fill="#125F3F"/>
<path d="M57.7225 331.524H55.8995L55.627 324.494H57.7225V331.524Z" fill="#FFB8B8"/>
<path d="M58.1871 333.291L52.3096 333.291V333.217C52.3096 332.916 52.3687 332.619 52.4837 332.341C52.5987 332.064 52.7672 331.811 52.9796 331.599C53.1921 331.387 53.4443 331.218 53.7218 331.103C53.9994 330.988 54.2969 330.929 54.5973 330.929H54.5974L58.1872 330.929L58.1871 333.291Z" fill="#2F2E41"/>
<path d="M67.9901 331.524H69.8123L70.0849 324.494H67.9893L67.9901 331.524Z" fill="#FFB8B8"/>
<path d="M67.5244 330.929L71.1142 330.929H71.1143C71.4148 330.929 71.7122 330.988 71.9898 331.103C72.2674 331.218 72.5196 331.387 72.732 331.599C72.9444 331.811 73.1129 332.064 73.2279 332.341C73.3429 332.619 73.402 332.916 73.402 333.217V333.291L67.5245 333.291L67.5244 330.929Z" fill="#2F2E41"/>
<path d="M68.0376 330.623C67.8855 330.623 67.7381 330.571 67.6194 330.475C67.5008 330.38 67.4179 330.248 67.3843 330.099L62.8663 310.393C62.8564 310.343 62.8292 310.298 62.7893 310.266C62.7495 310.234 62.6997 310.218 62.6486 310.219H62.6475C62.5963 310.218 62.5464 310.235 62.5066 310.267C62.4669 310.3 62.4399 310.345 62.4304 310.395L58.2815 329.969C58.2491 330.118 58.1666 330.253 58.0476 330.349C57.9285 330.445 57.7801 330.498 57.6269 330.499H55.6505C55.5593 330.499 55.4691 330.48 55.3854 330.444C55.3017 330.408 55.2262 330.355 55.1637 330.289C55.1011 330.222 55.0528 330.144 55.0216 330.058C54.9905 329.973 54.9772 329.881 54.9826 329.79L56.4547 304.982L57.0471 304.807L57.0582 304.807L68.6938 304.909L71.172 329.69C71.1807 329.778 71.1716 329.867 71.1454 329.952C71.1192 330.037 71.0764 330.116 71.0194 330.184C70.9624 330.252 70.8925 330.308 70.8136 330.349C70.7347 330.39 70.6485 330.414 70.56 330.422L68.0912 330.621C68.0732 330.622 68.0554 330.623 68.0376 330.623Z" fill="#2F2E41"/>
<path d="M63.2329 282.099C65.2497 282.099 66.8847 280.464 66.8847 278.447C66.8847 276.43 65.2497 274.795 63.2329 274.795C61.216 274.795 59.5811 276.43 59.5811 278.447C59.5811 280.464 61.216 282.099 63.2329 282.099Z" fill="#FFB8B8"/>
<path d="M60.9955 307.702C60.3548 307.71 59.7167 307.62 59.1031 307.436C58.5574 307.271 58.0511 306.997 57.6154 306.629C57.1797 306.262 56.8239 305.809 56.5698 305.299C56.4893 305.145 56.4714 304.966 56.52 304.8C56.9227 303.425 58.869 296.28 57.6272 290.6C57.4519 289.811 57.4374 288.995 57.5844 288.2C57.7314 287.405 58.037 286.648 58.4829 285.974C58.9184 285.305 59.4842 284.731 60.1465 284.286C60.8088 283.84 61.5541 283.533 62.3378 283.381V283.381C62.5438 283.341 62.7509 283.308 62.9532 283.283C63.8196 283.176 64.6988 283.263 65.5279 283.535C66.357 283.808 67.1156 284.261 67.7494 284.861C68.402 285.473 68.9112 286.222 69.2407 287.054C69.5701 287.885 69.7115 288.78 69.6549 289.672L68.7006 304.987C68.694 305.102 68.6577 305.213 68.5952 305.31C68.5326 305.406 68.4461 305.485 68.344 305.538C67.2449 306.114 63.9431 307.702 60.9955 307.702Z" fill="#3F3D56"/>
<path d="M67.3581 275.759C66.9787 274.806 66.2839 274.011 65.3895 273.508C64.4951 273.006 63.4553 272.825 62.4437 272.996L63.5951 273.926C62.1645 273.975 60.6587 273.872 59.6372 274.875C59.9624 274.866 60.3886 275.561 60.7138 275.552C60.4095 275.574 60.1165 275.676 59.8653 275.85C59.6142 276.023 59.4141 276.26 59.286 276.537C59.0373 277.098 58.9791 277.724 59.1204 278.321C59.4888 279.199 59.9174 280.05 60.4029 280.869C60.3605 279.417 63.2204 275.952 64.6169 276.313C63.9074 276.577 63.2917 277.044 62.8475 277.657C63.7976 277.177 64.8721 277.001 65.9254 277.153C66.1659 277.208 66.4141 277.222 66.6592 277.194C66.8094 277.165 66.9496 277.097 67.0662 276.997C67.1828 276.898 67.272 276.771 67.3253 276.627C67.3785 276.483 67.3941 276.329 67.3705 276.177C67.3468 276.026 67.2848 275.883 67.1903 275.763L67.3581 275.759Z" fill="#2F2E41"/>
<path d="M60.7439 306.783C60.6517 306.782 60.5604 306.763 60.476 306.726L53.5473 303.702C53.4001 303.639 53.2806 303.524 53.2109 303.38C53.1411 303.236 53.1258 303.072 53.1676 302.917L57.7545 285.59C57.8398 285.268 57.9885 284.965 58.192 284.701C58.3955 284.437 58.6496 284.216 58.9395 284.051C59.2295 283.886 59.5494 283.781 59.8805 283.741C60.2116 283.702 60.5474 283.729 60.868 283.82L62.7021 284.344L61.411 306.152C61.4043 306.26 61.3719 306.364 61.3163 306.457C61.2608 306.549 61.1838 306.627 61.0919 306.683C60.9873 306.748 60.8669 306.782 60.7439 306.783V306.783Z" fill="#125F3F"/>
<path d="M73.5678 302.917L73.2629 301.768L72.8214 300.097L72.6087 299.295L72.1672 297.628L68.9809 285.59C68.8959 285.267 68.7473 284.965 68.5439 284.701C68.3405 284.436 68.0863 284.215 67.7963 284.05C67.5063 283.885 67.1863 283.78 66.8551 283.741C66.5238 283.701 66.1881 283.728 65.8674 283.82L64.0342 284.344L64.9426 299.683L65.0363 301.285L65.0958 302.294V302.296L65.1909 303.888L65.3248 306.152C65.3357 306.322 65.4106 306.482 65.5345 306.599C65.6584 306.716 65.822 306.782 65.9923 306.783C66.0845 306.782 66.1755 306.763 66.26 306.726L73.1886 303.702C73.3359 303.639 73.4554 303.525 73.5251 303.38C73.5947 303.236 73.6099 303.072 73.5678 302.917Z" fill="#125F3F"/>
<path d="M72.6089 299.295L65.0362 301.284L64.9424 299.683L72.1671 297.628L72.6089 299.295Z" fill="#CCCCCC"/>
<path d="M73.2623 301.768L65.1901 303.888L65.0947 302.295V302.294L72.8206 300.096L73.2623 301.768Z" fill="#CCCCCC"/>
<path d="M61.7003 300.028L61.6065 301.6L54.1797 299.388L54.615 297.743L61.7003 300.028Z" fill="#CCCCCC"/>
<path d="M61.5457 302.634L53.9674 300.188L53.5312 301.838L61.4535 304.197L61.5457 302.634Z" fill="#CCCCCC"/>
<path d="M54.0986 304.278C54.3246 304.219 54.5348 304.111 54.7146 303.962C54.8944 303.813 55.0393 303.626 55.1392 303.415C55.239 303.204 55.2913 302.974 55.2925 302.74C55.2937 302.507 55.2436 302.276 55.1459 302.064L58.7086 290.879L56.1823 290.35L52.9159 301.316C52.5705 301.504 52.306 301.812 52.1725 302.181C52.0391 302.551 52.0459 302.957 52.1917 303.322C52.3374 303.687 52.6121 303.986 52.9636 304.162C53.315 304.338 53.7189 304.379 54.0986 304.278V304.278Z" fill="#FFB8B8"/>
<path d="M58.8075 285.381C59.5329 285.455 59.941 286.27 59.7606 287.286L58.8951 292.16C58.8302 292.525 58.5295 292.814 58.2796 292.752L55.352 292.02C55.1267 291.964 55.0438 291.644 55.1714 291.323L56.929 286.914C57.0479 286.497 57.2917 286.127 57.6275 285.853C57.9634 285.579 58.3752 285.414 58.8075 285.381Z" fill="#3F3D56"/>
<path d="M63.2188 271.612C64.4547 271.612 65.6421 272.093 66.5295 272.954C67.4168 273.814 67.9345 274.986 67.9729 276.221H68.8688C68.9476 276.221 69.0233 276.253 69.079 276.308C69.1348 276.364 69.1661 276.44 69.1661 276.519V277.708C69.1661 277.787 69.1348 277.863 69.079 277.918C69.0233 277.974 68.9476 278.005 68.8688 278.005H58.7583C58.6794 278.005 58.6038 277.974 58.548 277.918C58.4923 277.863 58.4609 277.787 58.4609 277.708V276.37C58.4609 275.745 58.584 275.126 58.8231 274.549C59.0622 273.972 59.4127 273.447 59.8545 273.006C60.2963 272.564 60.8208 272.213 61.398 271.974C61.9753 271.735 62.594 271.612 63.2188 271.612V271.612Z" fill="#125F3F"/>
<path d="M63.7875 301.022H61.6858C61.6184 301.022 61.5533 300.997 61.5033 300.952C61.4534 300.907 61.4222 300.844 61.4158 300.777L60.9951 296.465H64.4782L64.0575 300.777C64.0512 300.844 64.02 300.907 63.97 300.952C63.9201 300.997 63.855 301.022 63.7875 301.022Z" fill="#E6E6E6"/>
<path d="M64.4727 297.007H61.0007C60.9288 297.007 60.8599 296.979 60.809 296.928C60.7582 296.877 60.7296 296.808 60.7295 296.736V296.085C60.7296 296.013 60.7582 295.944 60.809 295.894C60.8599 295.843 60.9288 295.814 61.0007 295.814H64.4727C64.5446 295.814 64.6135 295.843 64.6644 295.894C64.7152 295.944 64.7438 296.013 64.7439 296.085V296.736C64.7438 296.808 64.7152 296.877 64.6644 296.928C64.6135 296.979 64.5446 297.007 64.4727 297.007V297.007Z" fill="#CCCCCC"/>
<path d="M62.7821 298.709C62.8638 298.719 62.9447 298.735 63.0239 298.757L68.6213 293.957L68.2941 292.196L70.8875 291.354L71.7698 294.416C71.841 294.663 71.8302 294.927 71.7388 295.168C71.6474 295.408 71.4804 295.613 71.2629 295.75L64.174 300.236C64.179 300.553 64.0875 300.864 63.9115 301.128C63.7355 301.391 63.4834 301.595 63.1888 301.712C62.8942 301.829 62.571 301.853 62.2622 301.782C61.9533 301.71 61.6736 301.547 61.4601 301.312C61.2465 301.078 61.1094 300.785 61.0669 300.47C61.0243 300.156 61.0784 299.837 61.2219 299.554C61.3655 299.272 61.5916 299.039 61.8703 298.889C62.149 298.738 62.4671 298.675 62.7822 298.709H62.7821Z" fill="#FFB8B8"/>
<path d="M68.6351 285.784C69.41 285.567 70.1842 286.156 70.4437 287.161L71.6887 291.983C71.782 292.344 71.6008 292.728 71.3176 292.769L68.001 293.246C67.7458 293.283 67.5209 293.021 67.5116 292.677L67.3828 287.932C67.3335 287.487 67.4286 287.038 67.6541 286.651C67.8796 286.264 68.2235 285.96 68.6351 285.784Z" fill="#3F3D56"/>
<path d="M106.335 298.828H103.81C103.729 298.828 103.651 298.798 103.591 298.744C103.531 298.689 103.494 298.615 103.486 298.534L102.98 293.353H107.165L106.66 298.534C106.652 298.614 106.615 298.689 106.555 298.744C106.495 298.798 106.416 298.828 106.335 298.828V298.828Z" fill="#E6E6E6"/>
<path d="M107.158 294.005H102.987C102.901 294.005 102.818 293.971 102.757 293.91C102.696 293.848 102.661 293.766 102.661 293.679V292.897C102.661 292.811 102.696 292.728 102.757 292.667C102.818 292.606 102.901 292.571 102.987 292.571H107.158C107.245 292.571 107.328 292.606 107.389 292.667C107.45 292.728 107.484 292.811 107.484 292.897V293.679C107.484 293.766 107.45 293.848 107.389 293.91C107.328 293.971 107.245 294.005 107.158 294.005V294.005Z" fill="#CCCCCC"/>
<path d="M131.143 329.252C129.308 326.811 127.858 324.105 126.842 321.225C126.783 321.053 126.787 320.866 126.854 320.696C126.92 320.527 127.045 320.386 127.205 320.3L133.483 316.936C133.585 316.881 133.697 316.851 133.813 316.846C133.928 316.841 134.043 316.863 134.149 316.909C134.256 316.956 134.352 317.027 134.428 317.116C134.504 317.205 134.559 317.311 134.588 317.424C135.319 320.199 136.693 322.762 138.598 324.907C138.676 324.995 138.734 325.099 138.766 325.212C138.798 325.325 138.804 325.443 138.783 325.559C138.763 325.673 138.718 325.78 138.65 325.874C138.582 325.967 138.494 326.044 138.392 326.098L132.114 329.462C131.954 329.548 131.768 329.573 131.59 329.535C131.412 329.496 131.254 329.396 131.143 329.252Z" fill="#CCCCCC"/>
<path d="M131.572 328.93C131.605 328.972 131.653 329.001 131.706 329.012C131.759 329.023 131.814 329.015 131.861 328.99L138.14 325.626C138.17 325.61 138.196 325.587 138.217 325.559C138.237 325.531 138.25 325.499 138.256 325.465C138.263 325.43 138.261 325.393 138.251 325.358C138.241 325.323 138.223 325.291 138.198 325.264C136.237 323.056 134.823 320.417 134.07 317.56C134.062 317.525 134.045 317.492 134.021 317.465C133.998 317.437 133.968 317.415 133.935 317.401C133.904 317.386 133.869 317.38 133.835 317.381C133.8 317.383 133.767 317.392 133.737 317.409L127.459 320.773C127.411 320.798 127.374 320.84 127.354 320.89C127.334 320.94 127.331 320.996 127.348 321.047C128.345 323.875 129.77 326.533 131.572 328.93V328.93Z" fill="white"/>
<path d="M133.896 321.737L130.476 323.246C130.346 323.304 130.199 323.307 130.066 323.256C129.934 323.204 129.827 323.102 129.77 322.973L129.685 322.781C129.628 322.651 129.625 322.504 129.676 322.371C129.727 322.239 129.829 322.132 129.959 322.074L133.378 320.565C133.508 320.508 133.656 320.504 133.788 320.556C133.921 320.607 134.027 320.709 134.085 320.839L134.17 321.03C134.227 321.16 134.23 321.308 134.179 321.44C134.127 321.573 134.026 321.68 133.896 321.737V321.737Z" fill="#CCCCCC"/>
<path d="M135.146 324.059L131.726 325.568C131.596 325.626 131.449 325.629 131.316 325.578C131.184 325.526 131.077 325.425 131.02 325.295L130.935 325.103C130.878 324.973 130.875 324.826 130.926 324.693C130.977 324.561 131.079 324.454 131.209 324.396L134.628 322.887C134.758 322.83 134.906 322.826 135.038 322.878C135.171 322.929 135.277 323.031 135.335 323.161L135.42 323.352C135.477 323.483 135.48 323.63 135.429 323.762C135.377 323.895 135.276 324.002 135.146 324.059V324.059Z" fill="#CCCCCC"/>
<path d="M127.127 322.124C126.891 321.972 126.691 321.771 126.541 321.533C126.392 321.296 126.296 321.029 126.261 320.75C126.226 320.472 126.252 320.189 126.338 319.922C126.424 319.655 126.568 319.41 126.758 319.205L125.316 298.741L129.47 299.144L129.584 319.184C129.908 319.528 130.095 319.978 130.11 320.45C130.124 320.922 129.964 321.383 129.661 321.746C129.359 322.108 128.933 322.347 128.466 322.416C127.999 322.486 127.522 322.382 127.127 322.124V322.124Z" fill="#A0616A"/>
<path d="M126.257 305.617C126.16 305.547 126.079 305.456 126.022 305.351C125.964 305.246 125.931 305.129 125.925 305.01L125.621 299.494C125.59 298.948 125.764 298.41 126.107 297.983C126.45 297.557 126.939 297.273 127.479 297.186C128.02 297.099 128.573 297.215 129.033 297.512C129.493 297.808 129.826 298.265 129.97 298.793L131.307 303.724C131.362 303.93 131.334 304.149 131.228 304.334C131.122 304.519 130.947 304.654 130.741 304.71L126.938 305.741C126.822 305.773 126.701 305.778 126.583 305.757C126.465 305.735 126.354 305.688 126.257 305.617Z" fill="#3F3D56"/>
<path d="M119.177 347.283L116.988 347.282L115.945 338.835H119.178L119.177 347.283Z" fill="#A0616A"/>
<path d="M114.934 346.656H119.647V349.316H112.764V348.827C112.764 348.542 112.82 348.26 112.929 347.996C113.038 347.733 113.198 347.494 113.399 347.292C113.601 347.091 113.84 346.931 114.103 346.822C114.367 346.713 114.649 346.656 114.934 346.656V346.656Z" fill="#2F2E41"/>
<path d="M127.394 347.283L125.204 347.282L124.162 338.835H127.395L127.394 347.283Z" fill="#A0616A"/>
<path d="M123.151 346.656H127.863V349.316H120.98V348.827C120.98 348.542 121.037 348.26 121.146 347.996C121.255 347.733 121.415 347.494 121.616 347.292C121.818 347.091 122.057 346.931 122.32 346.822C122.583 346.713 122.866 346.656 123.151 346.656V346.656Z" fill="#2F2E41"/>
<path d="M119.073 343.027L116.662 342.912C116.457 342.902 116.263 342.814 116.121 342.666C115.978 342.518 115.898 342.32 115.897 342.115C115.261 332.304 114.381 321.785 115.728 317.721C115.728 317.606 115.752 317.491 115.799 317.385C115.847 317.28 115.917 317.186 116.004 317.11C116.091 317.034 116.194 316.977 116.305 316.945C116.416 316.912 116.533 316.904 116.648 316.92L126.293 318.32C126.483 318.347 126.658 318.441 126.784 318.587C126.911 318.732 126.981 318.917 126.981 319.11C128.213 323.921 128.268 332.647 128.222 341.713C128.222 341.819 128.202 341.924 128.162 342.022C128.122 342.12 128.063 342.21 127.988 342.285C127.914 342.36 127.825 342.42 127.727 342.461C127.629 342.502 127.524 342.523 127.418 342.523H124.819C124.627 342.523 124.441 342.455 124.295 342.331C124.15 342.206 124.054 342.033 124.025 341.844L122.421 331.65C122.398 331.501 122.321 331.365 122.205 331.268C122.09 331.171 121.943 331.119 121.792 331.122C121.641 331.124 121.496 331.182 121.384 331.283C121.272 331.384 121.2 331.523 121.183 331.673L119.91 342.319C119.886 342.515 119.791 342.694 119.644 342.825C119.497 342.955 119.308 343.027 119.111 343.028C119.099 343.028 119.086 343.028 119.073 343.027Z" fill="#2F2E41"/>
<path d="M120.771 319.111C119.363 318.284 117.802 317.749 116.183 317.54C116.077 317.529 115.974 317.498 115.88 317.446C115.786 317.395 115.704 317.325 115.638 317.241C115.57 317.156 115.521 317.058 115.492 316.954C115.464 316.85 115.457 316.74 115.471 316.633L117.782 299.475C117.916 298.472 118.303 297.519 118.909 296.707C119.514 295.895 120.317 295.252 121.241 294.839C122.136 294.427 123.121 294.252 124.103 294.329C125.084 294.406 126.03 294.733 126.85 295.278C126.929 295.331 127.007 295.385 127.083 295.44C128.027 296.131 128.745 297.087 129.147 298.186C129.548 299.285 129.616 300.478 129.34 301.616C127.923 307.413 127.436 316.918 127.353 318.764C127.346 318.921 127.293 319.073 127.201 319.201C127.108 319.328 126.98 319.425 126.832 319.479C125.96 319.796 125.04 319.96 124.112 319.964C122.943 319.971 121.793 319.677 120.771 319.111V319.111Z" fill="#3F3D56"/>
<path d="M122.704 292.509C125.127 292.509 127.091 290.545 127.091 288.122C127.091 285.699 125.127 283.734 122.704 283.734C120.281 283.734 118.316 285.699 118.316 288.122C118.316 290.545 120.281 292.509 122.704 292.509Z" fill="#A0616A"/>
<path d="M125.809 291.593C125.625 291.791 125.389 291.932 125.128 292C124.867 292.069 124.592 292.061 124.335 291.978C124.079 291.896 123.851 291.741 123.679 291.534C123.506 291.326 123.397 291.073 123.364 290.806C123.355 290.713 123.356 290.62 123.365 290.528C123.525 290.02 123.622 289.495 123.652 288.964C123.636 288.825 123.584 288.693 123.502 288.58C122.85 287.707 121.319 288.971 120.703 288.18C120.326 287.695 120.77 286.932 120.48 286.39C120.098 285.675 118.965 286.028 118.255 285.636C117.465 285.2 117.512 283.988 118.033 283.251C118.371 282.815 118.801 282.46 119.293 282.209C119.785 281.959 120.326 281.82 120.877 281.803C121.981 281.777 123.078 281.991 124.091 282.43C125.288 282.819 126.344 283.552 127.128 284.536C127.534 285.181 127.791 285.909 127.881 286.666C127.971 287.423 127.891 288.19 127.648 288.913C127.218 289.919 126.593 290.83 125.809 291.593Z" fill="#2F2E41"/>
<path d="M129.283 295.858C129.206 295.497 128.547 295.004 127.604 294.603C126.088 293.988 124.448 293.741 122.818 293.881C121.189 294.021 119.615 294.543 118.225 295.406C118.128 295.412 118.036 295.449 117.962 295.511C117.888 295.574 117.837 295.66 117.816 295.755L114.644 309.786L114.231 311.614L113.958 312.823L113.545 314.645L113.325 315.618C113.311 315.681 113.311 315.745 113.324 315.808C113.337 315.87 113.363 315.929 113.4 315.981C113.438 316.032 113.486 316.075 113.541 316.107C113.597 316.138 113.659 316.158 113.722 316.163L127.421 317.346C127.434 317.346 127.448 317.348 127.461 317.348C127.574 317.347 127.682 317.303 127.765 317.226C127.847 317.148 127.896 317.042 127.904 316.93L128.034 314.945L128.174 312.823L128.234 311.903L128.372 309.786L129.285 295.882V295.869L129.283 295.858Z" fill="#125F3F"/>
<path d="M106.805 296.742C106.827 296.838 106.841 296.936 106.847 297.034L114.521 301.461L116.386 300.388L118.375 302.991L114.385 305.835L105.63 298.928C105.273 299.06 104.884 299.081 104.515 298.986C104.146 298.892 103.815 298.688 103.565 298.401C103.315 298.113 103.159 297.757 103.116 297.379C103.074 297 103.148 296.618 103.328 296.283C103.508 295.947 103.786 295.675 104.125 295.501C104.464 295.327 104.847 295.261 105.225 295.311C105.602 295.361 105.956 295.524 106.238 295.78C106.52 296.035 106.718 296.371 106.805 296.741V296.742Z" fill="#A0616A"/>
<path d="M114.796 301.085C114.783 300.966 114.797 300.845 114.837 300.732C114.877 300.619 114.942 300.517 115.027 300.432L118.932 296.526C119.319 296.139 119.836 295.909 120.382 295.88C120.929 295.852 121.466 296.026 121.892 296.371C122.317 296.715 122.6 297.204 122.686 297.745C122.772 298.285 122.654 298.839 122.356 299.298L119.575 303.583C119.459 303.762 119.276 303.887 119.068 303.932C118.859 303.976 118.642 303.936 118.463 303.82L115.157 301.675C115.057 301.61 114.972 301.523 114.909 301.421C114.847 301.319 114.808 301.204 114.796 301.085Z" fill="#3F3D56"/>
<path d="M128.372 309.786L128.235 311.903L114.231 311.614L114.644 309.786H128.372Z" fill="#CCCCCC"/>
<path d="M128.174 312.823L128.035 314.945L113.546 314.645L113.959 312.823H128.174Z" fill="#CCCCCC"/>
<path d="M122.79 279.598C121.305 279.598 119.878 280.176 118.812 281.21C117.746 282.243 117.124 283.651 117.078 285.135H116.002C115.907 285.135 115.816 285.173 115.749 285.24C115.682 285.307 115.645 285.398 115.645 285.492V286.922C115.645 287.016 115.682 287.107 115.749 287.174C115.816 287.241 115.907 287.279 116.002 287.279H128.149C128.244 287.279 128.335 287.241 128.402 287.174C128.469 287.107 128.506 287.016 128.506 286.922V285.314C128.506 284.563 128.358 283.82 128.071 283.126C127.784 282.433 127.363 281.803 126.832 281.272C126.301 280.741 125.671 280.32 124.977 280.033C124.284 279.745 123.541 279.598 122.79 279.598Z" fill="#125F3F"/>
<path d="M154.962 337.751H153.737C153.729 337.603 152.084 333.743 152.084 333.743L151.09 331.338L150.432 329.735L149.438 327.33L148.3 324.564C148.271 324.439 148.2 324.328 148.1 324.248C147.999 324.168 147.875 324.125 147.747 324.125C147.619 324.125 147.494 324.168 147.394 324.248C147.293 324.328 147.223 324.439 147.194 324.564L146.055 327.33L145.061 329.735L144.404 331.338L143.41 333.743C143.41 333.743 141.765 337.603 141.757 337.751H140.532C140.213 337.751 139.907 337.878 139.681 338.104C139.456 338.329 139.329 338.635 139.329 338.954C139.329 339.273 139.456 339.579 139.681 339.804C139.907 340.03 140.213 340.156 140.532 340.156H154.962C155.281 340.156 155.587 340.03 155.812 339.804C156.038 339.579 156.164 339.273 156.164 338.954C156.164 338.635 156.038 338.329 155.812 338.104C155.587 337.878 155.281 337.751 154.962 337.751Z" fill="#FF6584"/>
<path d="M154.16 358.595H153.685C153.729 358.492 151.619 353.096 151.619 353.096L150.352 350.009L149.502 347.941L148.235 344.854L146.857 341.511C146.818 341.354 146.727 341.213 146.599 341.113C146.472 341.013 146.314 340.958 146.151 340.958C145.989 340.958 145.831 341.013 145.703 341.113C145.575 341.213 145.484 341.354 145.446 341.511L144.067 344.854L142.8 347.941L141.942 350.009L140.676 353.096C140.676 353.096 138.574 358.492 138.617 358.595H138.126C137.807 358.595 137.502 358.722 137.276 358.947C137.051 359.173 136.924 359.479 136.924 359.798C136.924 360.116 137.051 360.422 137.276 360.648C137.502 360.873 137.807 361 138.126 361H154.16C154.479 361 154.785 360.873 155.01 360.648C155.236 360.422 155.363 360.116 155.363 359.798C155.363 359.479 155.236 359.173 155.01 358.947C154.785 358.722 154.479 358.595 154.16 358.595Z" fill="#FF6584"/>
<path d="M150.432 329.735H145.061L146.055 327.33H149.438L150.432 329.735Z" fill="#F2F2F2"/>
<path d="M152.083 333.743H143.409L144.403 331.338H151.089L152.083 333.743Z" fill="#F2F2F2"/>
<path d="M149.502 347.941H142.8L144.066 344.854H148.235L149.502 347.941Z" fill="#F2F2F2"/>
<path d="M151.619 353.096H140.676L141.942 350.009H150.352L151.619 353.096Z" fill="#F2F2F2"/>
<path d="M331.079 291.853C331.203 291.73 331.299 291.582 331.359 291.419C331.419 291.256 331.443 291.081 331.429 290.907C331.414 290.734 331.362 290.566 331.276 290.415C331.189 290.263 331.071 290.133 330.928 290.033L330.327 286.068L327.856 286.845L329.21 290.383C329.057 290.633 329.001 290.93 329.053 291.219C329.105 291.507 329.261 291.767 329.492 291.948C329.722 292.129 330.011 292.22 330.304 292.202C330.596 292.184 330.872 292.06 331.079 291.853V291.853Z" fill="#FFB8B8"/>
<path d="M328.534 289.987L327.01 282.87C326.862 282.188 326.891 281.48 327.095 280.812C327.299 280.145 327.67 279.541 328.174 279.059C330.125 277.179 332.632 274.809 333.498 274.197C334.311 273.617 335.295 273.327 336.292 273.372L336.313 273.374L337.624 274.613L334.768 279.314L330.432 282.031L330.915 289.006L328.534 289.987Z" fill="#125F3F"/>
<path d="M333.872 280.315H327.476C327.199 280.315 326.975 280.54 326.975 280.817C326.975 281.094 327.199 281.318 327.476 281.318H333.872C334.149 281.318 334.373 281.094 334.373 280.817C334.373 280.54 334.149 280.315 333.872 280.315Z" fill="#CCCCCC"/>
<path d="M333.872 291.225H327.476C327.199 291.225 326.975 291.45 326.975 291.727C326.975 292.004 327.199 292.228 327.476 292.228H333.872C334.149 292.228 334.373 292.004 334.373 291.727C334.373 291.45 334.149 291.225 333.872 291.225Z" fill="#CCCCCC"/>
<path d="M330.736 318.562C330.674 318.562 330.613 318.539 330.567 318.497C330.521 318.454 330.492 318.396 330.486 318.334L327.289 280.839C327.286 280.806 327.29 280.773 327.299 280.741C327.309 280.71 327.325 280.681 327.346 280.655C327.367 280.63 327.393 280.609 327.423 280.594C327.452 280.579 327.484 280.569 327.517 280.566C327.55 280.563 327.583 280.567 327.614 280.577C327.646 280.587 327.675 280.603 327.7 280.624C327.725 280.645 327.746 280.671 327.761 280.7C327.777 280.73 327.786 280.762 327.789 280.795L330.733 315.437L333.593 280.795C333.595 280.762 333.605 280.73 333.62 280.701C333.635 280.672 333.656 280.645 333.681 280.624C333.706 280.603 333.735 280.587 333.767 280.577C333.798 280.567 333.831 280.563 333.864 280.566C333.897 280.569 333.929 280.578 333.959 280.593C333.988 280.608 334.014 280.629 334.035 280.655C334.056 280.68 334.072 280.709 334.082 280.741C334.092 280.772 334.096 280.805 334.093 280.838L330.986 318.333C330.981 318.396 330.952 318.454 330.906 318.496C330.86 318.539 330.799 318.562 330.737 318.562L330.736 318.562Z" fill="#CCCCCC"/>
<path d="M337.913 271.871C339.731 271.871 341.204 270.398 341.204 268.581C341.204 266.764 339.731 265.291 337.913 265.291C336.096 265.291 334.623 266.764 334.623 268.581C334.623 270.398 336.096 271.871 337.913 271.871Z" fill="#FFB8B8"/>
<path d="M328.107 317.059L326.542 316.56L327.721 310.287L330.031 311.023L328.107 317.059Z" fill="#FFB8B8"/>
<path d="M328.02 318.447L322.982 316.841L323.024 316.71C323.184 316.21 323.536 315.793 324.003 315.552C324.47 315.311 325.014 315.264 325.515 315.423L328.664 316.427L328.02 318.447Z" fill="#2F2E41"/>
<path d="M339.493 317.026H337.85L337.068 310.691H339.493V317.026Z" fill="#FFB8B8"/>
<path d="M334.745 318.489H339.782V316.62H336.602C336.11 316.62 335.638 316.816 335.29 317.164C334.942 317.512 334.746 317.984 334.745 318.477V318.489Z" fill="#2F2E41"/>
<path d="M339.444 314.97L338.89 314.888C338.194 314.846 337.505 314.717 336.841 314.505C336.705 314.445 336.695 313.54 336.777 308.454C336.837 304.72 336.912 300.073 336.767 297.579C336.761 297.48 336.722 297.387 336.656 297.313C336.59 297.24 336.502 297.19 336.405 297.173C336.308 297.156 336.208 297.172 336.121 297.219C336.034 297.266 335.965 297.34 335.926 297.431C334.675 300.319 332.576 306.784 331.188 311.062C330.704 312.55 330.323 313.726 330.081 314.43C330.035 314.563 329.94 314.674 329.816 314.742C329.692 314.809 329.547 314.827 329.41 314.793C328.267 314.508 328.344 314.386 326.716 313.965C326.575 313.929 326.453 313.84 326.377 313.717C326.3 313.593 326.274 313.445 326.304 313.303C326.599 311.914 331.987 289.402 332.399 287.262C332.413 287.188 332.442 287.119 332.483 287.056C332.524 286.994 332.577 286.941 332.638 286.899C332.7 286.857 332.77 286.828 332.843 286.814C332.916 286.799 332.991 286.799 333.065 286.814C334.278 287.058 335.016 287.317 336.214 287.568C337.508 287.839 338.846 288.119 340.15 288.38C340.28 288.406 340.397 288.477 340.479 288.581C340.842 288.97 341.29 289.271 341.787 289.46C342.129 289.623 341.355 289.609 341.652 289.844C342.857 290.798 341.124 310.17 340.077 314.545C340.044 314.682 339.96 314.802 339.843 314.88C339.726 314.959 339.584 314.991 339.444 314.971V314.97Z" fill="#2F2E41"/>
<path d="M339.316 271.46C339.124 270.645 340.095 268.891 339.903 268.076C339.773 267.524 338.475 267.899 338.172 267.42C338.031 267.172 337.832 266.964 337.592 266.811C337.352 266.659 337.078 266.568 336.795 266.545C336.143 266.538 335.501 267.022 334.884 266.813C334.738 266.74 334.608 266.639 334.501 266.516C334.394 266.393 334.313 266.25 334.262 266.095C334.211 265.94 334.191 265.776 334.204 265.614C334.217 265.451 334.262 265.293 334.336 265.148C334.667 264.571 335.18 264.122 335.794 263.869C336.762 263.277 337.922 263.083 339.03 263.325C339.664 263.571 340.246 263.936 340.742 264.401C341.24 264.77 341.678 265.214 342.039 265.717C342.346 266.242 342.512 266.837 342.522 267.445C342.531 268.052 342.384 268.653 342.094 269.187C341.495 270.253 340.54 271.075 339.396 271.509" fill="#2F2E41"/>
<path d="M331.236 290.429C331.592 289.836 332.131 287.056 332.796 282.39C333.248 279.205 333.643 275.969 333.839 274.316C333.854 274.182 333.903 274.054 333.981 273.945C334.059 273.835 334.163 273.747 334.285 273.689C334.412 273.627 334.538 273.569 334.664 273.515C336.17 272.825 337.843 272.581 339.484 272.812C341.125 273.042 342.665 273.738 343.924 274.816L343.938 274.83L343.942 274.849C343.949 274.886 344.629 278.549 343.237 281.023C341.864 283.464 341.848 289.93 341.848 289.995V290.078L341.768 290.055C339.632 289.445 331.382 290.512 331.298 290.523L331.17 290.54L331.236 290.429Z" fill="#125F3F"/>
<path d="M343.653 281.946H337.257C336.98 281.946 336.756 282.17 336.756 282.447C336.756 282.724 336.98 282.949 337.257 282.949H343.653C343.93 282.949 344.155 282.724 344.155 282.447C344.155 282.17 343.93 281.946 343.653 281.946Z" fill="#CCCCCC"/>
<path d="M343.653 292.855H337.257C336.98 292.855 336.756 293.08 336.756 293.357C336.756 293.634 336.98 293.859 337.257 293.859H343.653C343.93 293.859 344.155 293.634 344.155 293.357C344.155 293.08 343.93 292.855 343.653 292.855Z" fill="#CCCCCC"/>
<path d="M340.517 318.688C340.455 318.688 340.394 318.664 340.348 318.622C340.302 318.58 340.273 318.522 340.268 318.459L337.07 282.469C337.064 282.403 337.085 282.337 337.128 282.286C337.171 282.235 337.232 282.203 337.298 282.197C337.364 282.191 337.43 282.212 337.481 282.255C337.532 282.298 337.564 282.359 337.57 282.425L340.514 315.562L343.374 282.426C343.377 282.393 343.386 282.361 343.401 282.331C343.416 282.302 343.437 282.276 343.462 282.255C343.487 282.233 343.516 282.217 343.548 282.207C343.579 282.197 343.613 282.193 343.645 282.196C343.678 282.199 343.71 282.208 343.74 282.224C343.769 282.239 343.795 282.26 343.816 282.285C343.837 282.31 343.853 282.34 343.863 282.371C343.873 282.403 343.877 282.436 343.874 282.469L340.767 318.459C340.762 318.521 340.733 318.579 340.687 318.622C340.641 318.664 340.58 318.688 340.518 318.688L340.517 318.688Z" fill="#CCCCCC"/>
<path d="M338.453 293.014C338.415 292.844 338.416 292.668 338.454 292.498C338.492 292.328 338.567 292.169 338.673 292.031C338.779 291.893 338.915 291.78 339.069 291.7C339.224 291.62 339.394 291.575 339.568 291.568L342.228 288.566L343.879 290.562L340.821 292.796C340.813 293.089 340.698 293.369 340.498 293.583C340.297 293.797 340.026 293.93 339.734 293.957C339.442 293.984 339.15 293.903 338.914 293.729C338.678 293.555 338.514 293.301 338.453 293.014H338.453Z" fill="#FFB8B8"/>
<path d="M340.001 290.925L344.197 285.331L342.033 280.695L342.19 275.197L343.964 274.869L343.983 274.878C344.844 275.382 345.512 276.16 345.88 277.088C346.274 278.074 347.091 281.425 347.707 284.063C347.868 284.742 347.852 285.451 347.661 286.122C347.469 286.793 347.108 287.403 346.613 287.895L341.467 293.042L340.001 290.925Z" fill="#125F3F"/>
<path d="M464.553 292.903C464.34 292.853 464.141 292.758 463.969 292.623C463.797 292.488 463.657 292.317 463.558 292.123C463.46 291.928 463.405 291.714 463.398 291.496C463.391 291.277 463.432 291.06 463.518 290.86L458.012 278.42L461.162 277.627L465.583 290.104C465.911 290.271 466.166 290.552 466.3 290.894C466.434 291.236 466.438 291.616 466.311 291.961C466.184 292.306 465.935 292.592 465.611 292.766C465.287 292.939 464.91 292.988 464.553 292.903V292.903Z" fill="#A0616A"/>
<path d="M459.034 282.318C458.946 282.279 458.867 282.221 458.804 282.148C458.741 282.076 458.693 281.991 458.666 281.899L457.703 278.678C457.493 278.232 457.468 277.721 457.635 277.256C457.801 276.792 458.146 276.413 458.592 276.203C459.038 275.992 459.549 275.968 460.014 276.134C460.478 276.301 460.857 276.645 461.068 277.091L462.929 279.903C462.982 279.983 463.018 280.074 463.032 280.169C463.047 280.264 463.042 280.361 463.016 280.454C462.99 280.547 462.944 280.633 462.882 280.706C462.819 280.779 462.742 280.838 462.655 280.879L459.591 282.313C459.504 282.354 459.409 282.376 459.313 282.376C459.217 282.377 459.121 282.357 459.034 282.318V282.318Z" fill="#125F3F"/>
<path d="M470.242 280.713L466.865 283.105C466.821 283.136 466.769 283.153 466.716 283.153C466.662 283.153 466.61 283.136 466.567 283.105L465.654 282.419C465.624 282.397 465.599 282.368 465.581 282.335C465.564 282.302 465.554 282.265 465.552 282.228C465.55 282.19 465.557 282.153 465.572 282.118C465.587 282.084 465.61 282.053 465.638 282.028L468.237 279.711C468.271 279.681 468.312 279.661 468.357 279.652C468.401 279.644 468.447 279.647 468.49 279.662L470.181 280.267C470.225 280.283 470.263 280.311 470.292 280.347C470.321 280.383 470.34 280.426 470.346 280.472C470.352 280.518 470.346 280.565 470.327 280.607C470.309 280.65 470.28 280.686 470.242 280.713V280.713Z" fill="#3F3D56"/>
<path d="M469.967 280.487C469.975 280.465 469.975 280.44 469.965 280.418C469.955 280.396 469.937 280.379 469.915 280.371L468.391 279.826C468.376 279.82 468.36 279.819 468.344 279.822C468.328 279.825 468.313 279.832 468.301 279.842L465.957 281.933L465.944 281.947C465.938 281.956 465.933 281.966 465.93 281.978C465.927 281.989 465.927 282 465.929 282.012C465.931 282.023 465.935 282.034 465.941 282.044C465.947 282.054 465.955 282.062 465.964 282.069L466.785 282.685C466.801 282.696 466.819 282.702 466.838 282.702C466.858 282.702 466.876 282.695 466.891 282.684L469.935 280.529C469.95 280.519 469.961 280.504 469.967 280.487Z" fill="white"/>
<path d="M457.933 316.362H459.637L460.448 309.788H457.933V316.362Z" fill="#A0616A"/>
<path d="M457.498 315.806L460.855 315.805H460.855C461.136 315.805 461.414 315.861 461.674 315.968C461.933 316.076 462.169 316.233 462.368 316.432C462.566 316.631 462.724 316.866 462.831 317.126C462.939 317.386 462.994 317.664 462.994 317.945V318.014L457.498 318.014L457.498 315.806Z" fill="#2F2E41"/>
<path d="M452.232 316.362H453.938L454.748 309.788H452.232V316.362Z" fill="#A0616A"/>
<path d="M451.798 315.806L455.155 315.805H455.155C455.436 315.805 455.714 315.861 455.973 315.968C456.233 316.076 456.469 316.233 456.667 316.432C456.866 316.631 457.024 316.866 457.131 317.126C457.239 317.386 457.294 317.664 457.294 317.945V318.014L451.798 318.014L451.798 315.806Z" fill="#2F2E41"/>
<path d="M451.87 314.353C451.754 314.219 451.688 314.048 451.686 313.871C451.279 309.691 452.385 287.716 454.94 285.84L454.955 285.824L462.432 284.533L462.571 284.672C462.582 284.866 463.942 304.128 460.188 313.958C460.142 314.075 460.062 314.176 459.958 314.247C459.854 314.318 459.731 314.356 459.605 314.356H458.112C458.026 314.356 457.94 314.338 457.861 314.303C457.782 314.269 457.711 314.218 457.653 314.155C457.594 314.092 457.549 314.017 457.521 313.935C457.493 313.854 457.482 313.767 457.488 313.681L458.697 295.274C458.701 295.222 458.685 295.169 458.652 295.128C458.619 295.086 458.572 295.059 458.519 295.051C458.467 295.044 458.414 295.056 458.37 295.086C458.327 295.116 458.296 295.162 458.285 295.213L454.882 313.896C454.852 314.027 454.782 314.146 454.68 314.234C454.578 314.322 454.451 314.376 454.317 314.386L452.356 314.532C452.341 314.533 452.325 314.533 452.31 314.533C452.145 314.533 451.988 314.468 451.87 314.353V314.353Z" fill="#2F2E41"/>
<path d="M461.709 273.265C463.595 273.265 465.124 271.736 465.124 269.85C465.124 267.964 463.595 266.436 461.709 266.436C459.823 266.436 458.294 267.964 458.294 269.85C458.294 271.736 459.823 273.265 461.709 273.265Z" fill="#A0616A"/>
<path d="M453.484 288.83C453.34 288.683 453.257 288.487 453.252 288.281L454.646 281.752C453.534 277.025 455.015 276.139 456.686 275.243L456.676 275.238L457.374 273.349C457.396 273.265 457.436 273.187 457.492 273.12C457.548 273.054 457.618 273 457.696 272.964C457.775 272.927 457.861 272.908 457.948 272.909C458.035 272.909 458.121 272.929 458.199 272.967L461.758 274.858C461.918 274.948 462.037 275.097 462.089 275.273C462.149 275.461 462.145 275.663 462.077 275.847L461.814 276.559C462.494 277.467 463.545 281.057 462.432 282.448L463.272 287.081C463.29 287.251 463.248 287.423 463.153 287.565C463.057 287.708 462.915 287.812 462.751 287.861L453.981 288.986C453.947 288.993 453.912 288.996 453.877 288.996C453.729 288.994 453.588 288.935 453.484 288.83V288.83Z" fill="#125F3F"/>
<path d="M466.251 281.343C466.195 281.395 466.143 281.452 466.096 281.513L459.217 281.038L458.479 279.534L456.064 280.351L457.112 283.14C457.197 283.366 457.352 283.557 457.555 283.687C457.758 283.816 457.997 283.876 458.237 283.858L466.06 283.265C466.233 283.506 466.475 283.688 466.754 283.787C467.033 283.887 467.336 283.899 467.623 283.822C467.909 283.745 468.165 283.583 468.357 283.357C468.548 283.131 468.667 282.852 468.696 282.557C468.726 282.262 468.665 281.965 468.521 281.706C468.378 281.447 468.159 281.237 467.893 281.105C467.628 280.973 467.328 280.926 467.035 280.968C466.742 281.01 466.468 281.141 466.251 281.343V281.343Z" fill="#A0616A"/>
<path d="M458.961 281.062L455.963 282.06C455.878 282.088 455.787 282.098 455.698 282.088C455.608 282.079 455.522 282.05 455.445 282.004C455.368 281.958 455.301 281.896 455.25 281.822C455.199 281.748 455.165 281.664 455.149 281.575L454.603 278.472C454.46 278.035 454.496 277.559 454.704 277.148C454.911 276.738 455.273 276.426 455.71 276.282C456.147 276.138 456.623 276.173 457.035 276.38C457.446 276.587 457.758 276.948 457.903 277.384L459.322 280.186C459.362 280.266 459.385 280.354 459.388 280.444C459.392 280.534 459.376 280.623 459.342 280.706C459.308 280.79 459.256 280.864 459.19 280.926C459.124 280.987 459.046 281.034 458.961 281.062V281.062Z" fill="#125F3F"/>
<path d="M459.791 267.154C461.327 267.154 462.572 265.909 462.572 264.373C462.572 262.838 461.327 261.593 459.791 261.593C458.256 261.593 457.011 262.838 457.011 264.373C457.011 265.909 458.256 267.154 459.791 267.154Z" fill="#2F2E41"/>
<path d="M464.942 270.273C465.212 270.326 465.491 270.303 465.747 270.205C465.878 270.131 465.989 270.027 466.072 269.902C466.155 269.776 466.208 269.633 466.225 269.484C466.743 266.042 463.816 266.325 463.47 266.176C463.251 266.048 463.046 265.898 462.858 265.729C462.37 265.459 461.814 265.336 461.258 265.377C460.601 265.316 459.938 265.397 459.315 265.615C458.772 265.869 458.321 266.285 458.023 266.806C457.729 267.324 457.513 267.883 457.383 268.465C457.178 269.123 457.14 269.822 457.274 270.498C457.416 271.003 457.713 271.451 458.122 271.779C458.531 272.107 459.033 272.299 459.557 272.328C459.473 271.923 459.524 271.502 459.704 271.129C459.883 270.756 460.181 270.453 460.55 270.267C461.137 269.978 461.805 269.899 462.443 270.041C462.857 270.125 463.277 270.177 463.699 270.198C464.113 270.213 464.61 270.237 464.942 270.273Z" fill="#2F2E41"/>
<path d="M732.193 317.041C732.196 313.393 733.647 309.895 736.228 307.317C738.808 304.738 742.307 303.29 745.955 303.29C749.602 303.29 753.101 304.738 755.681 307.317C758.262 309.895 759.713 313.393 759.716 317.041" fill="#F2F2F2"/>
<path d="M745.955 317.041C745.856 317.041 745.762 317.001 745.692 316.932C745.622 316.862 745.583 316.767 745.583 316.669V309.416C745.583 309.318 745.622 309.223 745.692 309.153C745.762 309.084 745.856 309.044 745.955 309.044C746.054 309.044 746.148 309.084 746.218 309.153C746.288 309.223 746.327 309.318 746.327 309.416V316.669C746.327 316.767 746.288 316.862 746.218 316.932C746.148 317.001 746.054 317.041 745.955 317.041V317.041Z" fill="#CCCCCC"/>
<path d="M745.955 314.548C745.866 314.549 745.78 314.517 745.712 314.459L741.249 310.628C741.212 310.597 741.181 310.558 741.158 310.514C741.136 310.47 741.122 310.423 741.118 310.374C741.114 310.325 741.12 310.276 741.135 310.229C741.151 310.182 741.175 310.139 741.207 310.102C741.239 310.064 741.278 310.034 741.322 310.012C741.366 309.99 741.414 309.976 741.463 309.973C741.512 309.969 741.561 309.976 741.607 309.991C741.654 310.007 741.697 310.031 741.734 310.064L746.197 313.894C746.255 313.944 746.296 314.01 746.315 314.083C746.334 314.157 746.33 314.235 746.303 314.306C746.277 314.377 746.229 314.439 746.167 314.482C746.105 314.525 746.03 314.549 745.954 314.548L745.955 314.548Z" fill="#CCCCCC"/>
<path d="M774.593 317.041C774.596 313.393 776.047 309.895 778.627 307.317C781.207 304.738 784.706 303.29 788.354 303.29C792.002 303.29 795.5 304.738 798.081 307.317C800.661 309.895 802.112 313.393 802.115 317.041" fill="#F2F2F2"/>
<path d="M788.353 317.041C788.255 317.041 788.16 317.001 788.09 316.932C788.021 316.862 787.981 316.767 787.981 316.669V309.416C787.981 309.318 788.021 309.223 788.09 309.153C788.16 309.084 788.255 309.044 788.353 309.044C788.452 309.044 788.547 309.084 788.616 309.153C788.686 309.223 788.725 309.318 788.725 309.416V316.669C788.725 316.767 788.686 316.862 788.616 316.932C788.547 317.001 788.452 317.041 788.353 317.041V317.041Z" fill="#CCCCCC"/>
<path d="M788.353 314.548C788.264 314.548 788.178 314.517 788.111 314.459L783.648 310.628C783.61 310.597 783.579 310.558 783.557 310.514C783.534 310.47 783.521 310.423 783.517 310.374C783.513 310.325 783.519 310.275 783.534 310.229C783.549 310.182 783.573 310.139 783.605 310.101C783.637 310.064 783.676 310.033 783.72 310.011C783.764 309.989 783.812 309.976 783.861 309.973C783.91 309.969 783.959 309.975 784.006 309.991C784.053 310.007 784.096 310.031 784.133 310.064L788.596 313.894C788.653 313.944 788.694 314.01 788.714 314.083C788.733 314.157 788.729 314.235 788.702 314.306C788.676 314.377 788.628 314.438 788.566 314.482C788.503 314.525 788.429 314.549 788.353 314.548V314.548Z" fill="#CCCCCC"/>
</g>
<defs>
<clipPath id="clip0_1740_691">
<rect width="840" height="361" fill="white"/>
</clipPath>
</defs>
</svg>
