<svg width="341" height="150" viewBox="0 0 341 150" fill="none" xmlns="http://www.w3.org/2000/svg">
<mask id="path-1-inside-1_97_39" fill="white">
<path d="M0 50C0 22.3858 22.3858 0 50 0H100C127.614 0 150 22.3858 150 50V100C150 127.614 127.614 150 100 150H50C22.3858 150 0 127.614 0 100V50Z"/>
</mask>
<path d="M-5 50C-5 19.6243 19.6243 -5 50 -5H95C125.376 -5 150 19.6243 150 50C150 25.1472 127.614 5 100 5H50C25.1472 5 5 25.1472 5 50H-5ZM150 100C150 130.376 125.376 155 95 155H50C19.6243 155 -5 130.376 -5 100H5C5 124.853 25.1472 145 50 145H100C127.614 145 150 124.853 150 100ZM50 155C19.6243 155 -5 130.376 -5 100V50C-5 19.6243 19.6243 -5 50 -5V5C25.1472 5 5 25.1472 5 50V100C5 124.853 25.1472 145 50 145V155ZM150 0V150V0Z" fill="black" mask="url(#path-1-inside-1_97_39)"/>
<path d="M66.0909 75.4545H54.5455C54.4848 74.7424 54.2348 74.1288 53.7955 73.6136C53.3561 73.0985 52.7879 72.7045 52.0909 72.4318C51.4091 72.1439 50.6515 72 49.8182 72C48.7424 72 47.8182 72.197 47.0455 72.5909C46.2727 72.9848 45.8939 73.5455 45.9091 74.2727C45.8939 74.7879 46.1136 75.2652 46.5682 75.7045C47.0379 76.1439 47.9394 76.4848 49.2727 76.7273L56.3636 78C59.9394 78.6515 62.5985 79.75 64.3409 81.2955C66.0985 82.8258 66.9848 84.8788 67 87.4545C66.9848 89.9394 66.2424 92.0985 64.7727 93.9318C63.3182 95.75 61.3258 97.1591 58.7955 98.1591C56.2803 99.1439 53.4091 99.6364 50.1818 99.6364C44.8485 99.6364 40.6742 98.5455 37.6591 96.3636C34.6591 94.1818 32.9848 91.303 32.6364 87.7273H45.0909C45.2576 88.8333 45.803 89.6894 46.7273 90.2955C47.6667 90.8864 48.8485 91.1818 50.2727 91.1818C51.4242 91.1818 52.3712 90.9848 53.1136 90.5909C53.8712 90.197 54.2576 89.6364 54.2727 88.9091C54.2576 88.2424 53.9242 87.7121 53.2727 87.3182C52.6364 86.9242 51.6364 86.6061 50.2727 86.3636L44.0909 85.2727C40.5303 84.6515 37.8636 83.4697 36.0909 81.7273C34.3182 79.9848 33.4394 77.7424 33.4545 75C33.4394 72.5758 34.0758 70.5227 35.3636 68.8409C36.6667 67.1439 38.5227 65.8561 40.9318 64.9773C43.3561 64.0833 46.2273 63.6364 49.5455 63.6364C54.5909 63.6364 58.5682 64.6818 61.4773 66.7727C64.4015 68.8636 65.9394 71.7576 66.0909 75.4545ZM81.0868 99V64.0909H93.6323V99H81.0868ZM87.3595 60.4545C85.6626 60.4545 84.208 59.8939 82.9959 58.7727C81.7838 57.6515 81.1777 56.303 81.1777 54.7273C81.1777 53.1515 81.7838 51.803 82.9959 50.6818C84.208 49.5606 85.6626 49 87.3595 49C89.0717 49 90.5262 49.5606 91.7232 50.6818C92.9353 51.803 93.5414 53.1515 93.5414 54.7273C93.5414 56.303 92.9353 57.6515 91.7232 58.7727C90.5262 59.8939 89.0717 60.4545 87.3595 60.4545ZM120.122 64.0909L125.213 74.9091L130.577 64.0909H143.032L133.668 81.5455L143.486 99H131.122L125.213 87.9091L119.486 99H106.941L116.85 81.5455L107.577 64.0909H120.122ZM158.931 112.091V64.0909H162.863V70.75H163.34C163.825 69.7045 164.492 68.6364 165.34 67.5455C166.188 66.4394 167.31 65.5076 168.704 64.75C170.113 63.9924 171.885 63.6136 174.022 63.6136C176.901 63.6136 179.416 64.3712 181.567 65.8864C183.734 67.3864 185.416 69.4924 186.613 72.2045C187.825 74.9015 188.431 78.0455 188.431 81.6364C188.431 85.2424 187.825 88.4015 186.613 91.1136C185.416 93.8258 183.734 95.9394 181.567 97.4545C179.416 98.9697 176.916 99.7273 174.067 99.7273C171.961 99.7273 170.196 99.3485 168.772 98.5909C167.363 97.8333 166.219 96.9015 165.34 95.7955C164.476 94.6742 163.81 93.5833 163.34 92.5227H162.976V112.091H158.931ZM162.931 81.5682C162.931 84.3864 163.348 86.8864 164.181 89.0682C165.029 91.2348 166.242 92.9394 167.817 94.1818C169.408 95.4091 171.332 96.0227 173.59 96.0227C175.908 96.0227 177.863 95.3864 179.454 94.1136C181.06 92.8258 182.279 91.0909 183.113 88.9091C183.961 86.7273 184.385 84.2803 184.385 81.5682C184.385 78.8864 183.969 76.4697 183.135 74.3182C182.317 72.1667 181.105 70.4621 179.499 69.2045C177.893 67.9318 175.923 67.2955 173.59 67.2955C171.317 67.2955 169.385 67.9091 167.795 69.1364C166.204 70.3485 164.992 72.0303 164.158 74.1818C163.34 76.3182 162.931 78.7803 162.931 81.5682ZM210.631 52.4545V99H206.586V52.4545H210.631ZM244.184 99.7273C241.169 99.7273 238.502 98.9621 236.184 97.4318C233.881 95.9015 232.078 93.7879 230.775 91.0909C229.472 88.3788 228.82 85.25 228.82 81.7045C228.82 78.1288 229.472 74.9848 230.775 72.2727C232.078 69.5455 233.881 67.4242 236.184 65.9091C238.502 64.3788 241.169 63.6136 244.184 63.6136C247.199 63.6136 249.858 64.3788 252.161 65.9091C254.464 67.4394 256.267 69.5606 257.57 72.2727C258.889 74.9848 259.548 78.1288 259.548 81.7045C259.548 85.25 258.896 88.3788 257.593 91.0909C256.29 93.7879 254.48 95.9015 252.161 97.4318C249.858 98.9621 247.199 99.7273 244.184 99.7273ZM244.184 96.0227C246.608 96.0227 248.661 95.3712 250.343 94.0682C252.025 92.7652 253.298 91.0303 254.161 88.8636C255.04 86.697 255.48 84.3106 255.48 81.7045C255.48 79.0985 255.04 76.7045 254.161 74.5227C253.298 72.3409 252.025 70.5909 250.343 69.2727C248.661 67.9545 246.608 67.2955 244.184 67.2955C241.775 67.2955 239.722 67.9545 238.025 69.2727C236.343 70.5909 235.063 72.3409 234.184 74.5227C233.32 76.7045 232.889 79.0985 232.889 81.7045C232.889 84.3106 233.32 86.697 234.184 88.8636C235.063 91.0303 236.343 92.7652 238.025 94.0682C239.707 95.3712 241.76 96.0227 244.184 96.0227ZM277.708 99V64.0909H281.64V69.4545H281.936C282.633 67.697 283.845 66.2803 285.572 65.2045C287.314 64.1136 289.284 63.5682 291.481 63.5682C291.814 63.5682 292.186 63.5758 292.595 63.5909C293.004 63.6061 293.345 63.6212 293.617 63.6364V67.75C293.436 67.7197 293.117 67.6742 292.663 67.6136C292.208 67.553 291.716 67.5227 291.186 67.5227C289.367 67.5227 287.746 67.9091 286.322 68.6818C284.913 69.4394 283.799 70.4924 282.981 71.8409C282.163 73.1894 281.754 74.7273 281.754 76.4545V99H277.708ZM322.852 99.7273C319.594 99.7273 316.776 98.9697 314.397 97.4545C312.019 95.9242 310.178 93.8106 308.875 91.1136C307.587 88.4015 306.943 85.2803 306.943 81.75C306.943 78.2348 307.587 75.1136 308.875 72.3864C310.178 69.6439 311.973 67.5 314.261 65.9545C316.564 64.3939 319.223 63.6136 322.238 63.6136C324.132 63.6136 325.958 63.9621 327.716 64.6591C329.473 65.3409 331.049 66.3939 332.443 67.8182C333.852 69.2273 334.966 71.0076 335.784 73.1591C336.602 75.2955 337.011 77.8258 337.011 80.75V82.75H309.738V79.1818H332.875C332.875 76.9394 332.42 74.9242 331.511 73.1364C330.617 71.3333 329.367 69.9091 327.761 68.8636C326.17 67.8182 324.329 67.2955 322.238 67.2955C320.026 67.2955 318.079 67.8864 316.397 69.0682C314.716 70.25 313.397 71.8106 312.443 73.75C311.504 75.6894 311.026 77.8106 311.011 80.1136V82.25C311.011 85.0227 311.488 87.447 312.443 89.5227C313.413 91.5833 314.784 93.1818 316.557 94.3182C318.329 95.4545 320.428 96.0227 322.852 96.0227C324.504 96.0227 325.951 95.7652 327.193 95.25C328.451 94.7348 329.504 94.0455 330.352 93.1818C331.216 92.303 331.867 91.3409 332.307 90.2955L336.147 91.5455C335.617 93.0152 334.746 94.3712 333.534 95.6136C332.337 96.8561 330.837 97.8561 329.034 98.6136C327.246 99.3561 325.185 99.7273 322.852 99.7273Z" fill="black"/>
</svg>
